<svg width="179" height="291" viewBox="0 0 179 291" fill="none" xmlns="http://www.w3.org/2000/svg">
<path d="M6.90002 274.91C7.21002 274.87 7.59004 274.84 8.04004 274.8C8.49004 274.77 8.92004 274.75 9.35004 274.75C11.1 274.75 12.41 275.2 13.28 276.08C14.15 276.97 14.58 278.25 14.58 279.92C14.58 281.66 14.14 282.96 13.25 283.8C12.37 284.65 11.04 285.07 9.29004 285.07C8.85004 285.07 8.42003 285.06 8.00003 285.02C7.57003 284.99 7.21002 284.95 6.90002 284.9V274.91ZM8.32004 283.74C8.45004 283.76 8.61002 283.78 8.80002 283.79C8.99002 283.8 9.19002 283.81 9.40002 283.81C9.95002 283.81 10.45 283.75 10.9 283.62C11.35 283.5 11.74 283.28 12.06 282.99C12.38 282.69 12.64 282.29 12.81 281.79C12.98 281.28 13.07 280.65 13.07 279.89C13.07 279.19 12.98 278.6 12.81 278.11C12.63 277.62 12.39 277.22 12.06 276.91C11.74 276.6 11.36 276.37 10.92 276.23C10.47 276.09 9.98003 276.02 9.44003 276.02C9.26003 276.02 9.07002 276.02 8.86002 276.03C8.65002 276.04 8.47003 276.06 8.31003 276.08V283.74H8.32004Z" fill="#575756"/>
<path d="M20.23 274.91C20.34 274.89 20.46 274.88 20.58 274.87C20.7 274.86 20.82 274.86 20.94 274.86C21.06 274.86 21.18 274.86 21.31 274.87C21.43 274.88 21.55 274.89 21.66 274.91V284.91C21.55 284.93 21.44 284.95 21.32 284.96C21.2 284.96 21.08 284.97 20.95 284.97C20.83 284.97 20.71 284.96 20.58 284.96C20.46 284.95 20.34 284.93 20.24 284.91V274.91H20.23Z" fill="#575756"/>
<path d="M27.46 283.4C27.77 283.51 28.09 283.61 28.42 283.69C28.75 283.77 29.17 283.81 29.64 283.81C30.4 283.81 30.97 283.65 31.34 283.35C31.72 283.04 31.9 282.62 31.9 282.09C31.9 281.83 31.86 281.61 31.78 281.42C31.7 281.23 31.58 281.07 31.43 280.94C31.27 280.8 31.07 280.68 30.84 280.57C30.6 280.46 30.33 280.34 30.01 280.21L29.22 279.89C28.95 279.78 28.71 279.66 28.48 279.52C28.26 279.38 28.07 279.22 27.9 279.02C27.74 278.83 27.61 278.6 27.52 278.35C27.43 278.1 27.38 277.79 27.38 277.44C27.38 276.59 27.67 275.93 28.24 275.45C28.82 274.97 29.62 274.73 30.66 274.73C31.11 274.73 31.53 274.77 31.93 274.84C32.33 274.91 32.68 275.01 32.99 275.12C32.94 275.51 32.84 275.9 32.68 276.28C32.43 276.19 32.14 276.1 31.81 276.03C31.48 275.95 31.11 275.92 30.69 275.92C30.11 275.92 29.65 276.04 29.34 276.27C29.02 276.51 28.87 276.86 28.87 277.34C28.87 277.54 28.91 277.71 28.99 277.86C29.07 278.02 29.18 278.15 29.31 278.27C29.44 278.39 29.59 278.49 29.77 278.58C29.95 278.68 30.13 278.76 30.33 278.83L31.11 279.13C31.48 279.28 31.81 279.44 32.1 279.6C32.39 279.76 32.63 279.95 32.84 280.17C33.04 280.39 33.2 280.65 33.3 280.94C33.41 281.23 33.46 281.58 33.46 281.98C33.46 282.93 33.13 283.69 32.47 284.24C31.81 284.79 30.89 285.07 29.7 285.07C29.41 285.07 29.15 285.06 28.92 285.04C28.69 285.02 28.47 284.99 28.27 284.96C28.07 284.92 27.88 284.88 27.69 284.82C27.51 284.76 27.32 284.7 27.12 284.64C27.14 284.44 27.18 284.23 27.24 284.02C27.32 283.81 27.39 283.6 27.46 283.4Z" fill="#575756"/>
<path d="M40.64 276.15H38.04C38.02 276.06 38.01 275.96 38 275.84C37.99 275.73 37.98 275.62 37.98 275.52C37.98 275.41 37.98 275.31 38 275.21C38.01 275.1 38.02 275 38.04 274.91H44.66C44.68 275 44.69 275.11 44.7 275.21C44.71 275.31 44.72 275.41 44.72 275.51C44.72 275.61 44.72 275.72 44.7 275.84C44.69 275.96 44.68 276.06 44.66 276.15H42.06V284.92C41.85 284.95 41.61 284.97 41.36 284.97C41.1 284.97 40.86 284.95 40.64 284.92V276.15Z" fill="#575756"/>
<path d="M49.88 274.89C50.08 274.87 50.27 274.85 50.44 274.83C50.61 274.81 50.77 274.79 50.94 274.78C51.1 274.77 51.27 274.76 51.45 274.75C51.62 274.74 51.82 274.73 52.03 274.73C52.5 274.73 52.97 274.78 53.44 274.87C53.9 274.96 54.32 275.12 54.68 275.36C55.04 275.59 55.34 275.9 55.56 276.3C55.79 276.7 55.9 277.19 55.9 277.79C55.9 278.15 55.84 278.49 55.72 278.78C55.6 279.08 55.45 279.34 55.26 279.57C55.07 279.8 54.86 280 54.63 280.18C54.39 280.35 54.16 280.49 53.94 280.61L53.77 280.69L56.68 284.91C56.43 284.94 56.15 284.96 55.83 284.96C55.58 284.96 55.33 284.94 55.08 284.91L51.88 280.28V280.22L51.99 280.19C52.24 280.13 52.5 280.04 52.78 279.93C53.06 279.82 53.32 279.67 53.55 279.5C53.79 279.32 53.98 279.1 54.14 278.84C54.3 278.59 54.38 278.28 54.38 277.92C54.38 277.25 54.18 276.75 53.79 276.43C53.4 276.1 52.86 275.94 52.2 275.94C52.04 275.94 51.9 275.95 51.76 275.96C51.62 275.97 51.47 275.98 51.31 276V284.92C51.21 284.93 51.09 284.94 50.97 284.95C50.85 284.96 50.73 284.97 50.61 284.97C50.5 284.97 50.38 284.96 50.25 284.96C50.12 284.95 50 284.94 49.89 284.92V274.89H49.88Z" fill="#575756"/>
<path d="M61.78 274.91C61.89 274.89 62.01 274.88 62.13 274.87C62.25 274.86 62.37 274.86 62.49 274.86C62.61 274.86 62.73 274.86 62.85 274.87C62.97 274.88 63.09 274.89 63.2 274.91V284.92C63.09 284.94 62.98 284.95 62.86 284.97C62.74 284.97 62.62 284.98 62.49 284.98C62.37 284.98 62.25 284.98 62.12 284.97C62 284.96 61.88 284.94 61.78 284.92V274.91Z" fill="#575756"/>
<path d="M70.9901 276.15H68.3901C68.3701 276.06 68.3601 275.96 68.3501 275.84C68.3401 275.73 68.3401 275.62 68.3401 275.52C68.3401 275.42 68.3401 275.31 68.3501 275.21C68.3601 275.1 68.3701 275 68.3901 274.91H75.0101C75.0301 275 75.0401 275.11 75.0501 275.21C75.0601 275.31 75.0701 275.41 75.0701 275.51C75.0701 275.61 75.0601 275.72 75.0501 275.84C75.0401 275.96 75.0301 276.06 75.0101 276.15H72.4101V284.92C72.2001 284.95 71.9701 284.97 71.7101 284.97C71.4501 284.97 71.2101 284.95 70.9901 284.92V276.15Z" fill="#575756"/>
<path d="M83.53 285.08C82.81 285.08 82.18 284.96 81.65 284.7C81.12 284.45 80.68 284.09 80.33 283.63C79.98 283.17 79.72 282.63 79.55 282C79.38 281.37 79.29 280.68 79.29 279.93C79.29 279.18 79.38 278.48 79.55 277.85C79.72 277.22 79.98 276.67 80.33 276.21C80.68 275.75 81.12 275.39 81.65 275.13C82.18 274.87 82.81 274.74 83.53 274.74C84.25 274.74 84.88 274.87 85.41 275.13C85.94 275.39 86.38 275.75 86.73 276.21C87.08 276.67 87.34 277.22 87.5 277.85C87.66 278.48 87.75 279.17 87.75 279.93C87.75 280.68 87.66 281.37 87.5 282C87.33 282.63 87.07 283.17 86.73 283.63C86.38 284.09 85.94 284.45 85.41 284.7C84.88 284.96 84.25 285.08 83.53 285.08ZM83.53 283.86C84 283.86 84.39 283.77 84.74 283.59C85.08 283.41 85.36 283.15 85.58 282.8C85.8 282.46 85.97 282.04 86.08 281.56C86.19 281.08 86.25 280.53 86.25 279.92C86.25 279.31 86.19 278.77 86.08 278.28C85.97 277.79 85.8 277.38 85.58 277.04C85.36 276.71 85.08 276.44 84.74 276.26C84.4 276.08 84 275.99 83.53 275.99C83.07 275.99 82.67 276.08 82.32 276.26C81.98 276.44 81.7 276.71 81.48 277.04C81.25 277.38 81.09 277.79 80.98 278.28C80.87 278.77 80.81 279.31 80.81 279.92C80.81 280.53 80.87 281.08 80.98 281.56C81.09 282.04 81.26 282.46 81.48 282.8C81.7 283.14 81.98 283.41 82.32 283.59C82.67 283.77 83.07 283.86 83.53 283.86Z" fill="#575756"/>
<path d="M100.36 274.91H105.59C105.61 275 105.62 275.11 105.63 275.21C105.64 275.32 105.64 275.42 105.64 275.52C105.64 275.62 105.64 275.73 105.63 275.84C105.62 275.95 105.61 276.05 105.59 276.15H101.78V279.08H104.96C104.98 279.18 104.99 279.29 105 279.4C105.01 279.51 105.02 279.61 105.02 279.71C105.02 279.81 105.01 279.91 105 280.02C104.99 280.13 104.98 280.23 104.96 280.33H101.78V284.91C101.67 284.93 101.56 284.94 101.44 284.96C101.32 284.96 101.2 284.97 101.07 284.97C100.95 284.97 100.83 284.97 100.7 284.96C100.58 284.95 100.46 284.93 100.36 284.91V274.91Z" fill="#575756"/>
<path d="M110.99 274.91H116.49C116.52 275.09 116.53 275.3 116.53 275.53C116.53 275.63 116.53 275.74 116.52 275.85C116.52 275.96 116.51 276.06 116.49 276.16H112.41V279.03H115.67C115.69 279.12 115.7 279.22 115.71 279.33C115.72 279.44 115.72 279.54 115.72 279.64C115.72 279.74 115.72 279.85 115.71 279.96C115.7 280.07 115.69 280.17 115.67 280.27H112.41V283.69H116.6C116.63 283.88 116.64 284.08 116.64 284.3C116.64 284.4 116.64 284.51 116.63 284.62C116.63 284.73 116.61 284.83 116.59 284.92H110.98V274.91H110.99Z" fill="#575756"/>
<path d="M122.08 274.91C122.39 274.87 122.77 274.84 123.22 274.81C123.66 274.78 124.1 274.76 124.53 274.76C126.28 274.76 127.59 275.21 128.46 276.09C129.33 276.98 129.76 278.26 129.76 279.93C129.76 281.67 129.32 282.97 128.43 283.81C127.54 284.66 126.22 285.08 124.47 285.08C124.03 285.08 123.6 285.07 123.18 285.03C122.75 285 122.39 284.96 122.08 284.91V274.91ZM123.5 283.75C123.63 283.77 123.79 283.78 123.98 283.8C124.17 283.81 124.37 283.82 124.58 283.82C125.13 283.82 125.63 283.76 126.08 283.63C126.53 283.51 126.91 283.3 127.24 283C127.56 282.7 127.81 282.3 127.99 281.8C128.17 281.3 128.25 280.66 128.25 279.9C128.25 279.2 128.16 278.61 127.99 278.12C127.81 277.63 127.56 277.23 127.24 276.92C126.92 276.61 126.54 276.39 126.09 276.24C125.65 276.1 125.15 276.03 124.62 276.03C124.44 276.03 124.25 276.03 124.04 276.04C123.83 276.05 123.65 276.06 123.49 276.09V283.75H123.5Z" fill="#575756"/>
<path d="M135.41 274.91H140.91C140.94 275.09 140.95 275.3 140.95 275.53C140.95 275.63 140.95 275.74 140.94 275.85C140.94 275.96 140.92 276.06 140.91 276.16H136.83V279.03H140.08C140.1 279.12 140.12 279.22 140.12 279.33C140.13 279.44 140.14 279.54 140.14 279.64C140.14 279.74 140.13 279.85 140.12 279.96C140.12 280.07 140.1 280.17 140.08 280.27H136.83V283.69H141.02C141.05 283.88 141.06 284.08 141.06 284.3C141.06 284.4 141.06 284.51 141.05 284.62C141.05 284.73 141.03 284.83 141.01 284.92H135.4V274.91H135.41Z" fill="#575756"/>
<path d="M146.51 274.89C146.72 274.87 146.9 274.85 147.07 274.83C147.24 274.81 147.4 274.79 147.56 274.78C147.72 274.77 147.89 274.76 148.07 274.75C148.25 274.74 148.44 274.73 148.65 274.73C149.13 274.73 149.59 274.78 150.06 274.87C150.52 274.96 150.94 275.12 151.3 275.36C151.66 275.59 151.96 275.9 152.19 276.3C152.41 276.7 152.53 277.19 152.53 277.79C152.53 278.15 152.47 278.49 152.35 278.78C152.23 279.08 152.08 279.34 151.89 279.57C151.7 279.8 151.49 280 151.25 280.18C151.01 280.35 150.79 280.49 150.56 280.61L150.39 280.69L153.3 284.91C153.05 284.94 152.77 284.96 152.45 284.96C152.2 284.96 151.95 284.94 151.7 284.91L148.5 280.28V280.22L148.61 280.19C148.86 280.13 149.12 280.04 149.4 279.93C149.68 279.82 149.94 279.67 150.17 279.5C150.41 279.32 150.6 279.1 150.76 278.84C150.92 278.59 151 278.28 151 277.92C151 277.25 150.8 276.75 150.41 276.43C150.01 276.1 149.48 275.94 148.81 275.94C148.65 275.94 148.51 275.95 148.37 275.95C148.24 275.96 148.08 275.97 147.92 275.99V284.91C147.82 284.92 147.7 284.93 147.58 284.94C147.46 284.95 147.33 284.96 147.22 284.96C147.11 284.96 146.99 284.96 146.86 284.95C146.73 284.94 146.61 284.93 146.49 284.91V274.89H146.51Z" fill="#575756"/>
<path d="M163.33 282.61H159.54L158.86 284.92C158.74 284.94 158.62 284.95 158.5 284.97C158.38 284.97 158.26 284.98 158.14 284.98C158.01 284.98 157.88 284.98 157.76 284.97C157.64 284.96 157.52 284.94 157.42 284.92L160.68 274.91C160.8 274.89 160.93 274.88 161.07 274.87C161.21 274.86 161.35 274.86 161.5 274.86C161.63 274.86 161.76 274.86 161.9 274.87C162.04 274.88 162.17 274.89 162.3 274.91L165.54 284.92C165.43 284.94 165.3 284.95 165.16 284.97C165.02 284.97 164.89 284.98 164.76 284.98C164.64 284.98 164.52 284.98 164.39 284.97C164.27 284.96 164.15 284.94 164.04 284.92L163.33 282.61ZM159.91 281.37H162.95L161.42 276.26L159.91 281.37Z" fill="#575756"/>
<path d="M170.61 274.91C170.71 274.89 170.82 274.88 170.94 274.87C171.06 274.86 171.18 274.86 171.31 274.86C171.43 274.86 171.55 274.86 171.67 274.87C171.79 274.88 171.91 274.89 172.02 274.91V283.67H175.95C175.97 283.77 175.98 283.88 175.99 283.99C175.99 284.1 176 284.21 176 284.3C176 284.52 175.99 284.73 175.96 284.92H170.63V274.91H170.61Z" fill="#575756"/>
<path d="M5.91003 245.07C6.63003 244.96 7.32004 244.9 7.98004 244.9C8.66004 244.9 9.37002 244.95 10.11 245.07V261.42H17.38C17.44 261.73 17.48 262.03 17.5 262.32C17.52 262.61 17.53 262.88 17.53 263.13C17.53 263.42 17.52 263.71 17.5 264C17.48 264.29 17.44 264.58 17.38 264.89H5.90002V245.07H5.91003Z" fill="#575756"/>
<path d="M20.89 245.07H32.81C32.93 245.62 32.98 246.18 32.98 246.75C32.98 247.35 32.92 247.93 32.81 248.48H25.16V252.78H31.24C31.36 253.37 31.41 253.94 31.41 254.49C31.41 255.08 31.35 255.66 31.24 256.23H25.16V261.47H33.02C33.14 262.02 33.2 262.59 33.2 263.15C33.2 263.76 33.14 264.34 33.02 264.89H20.9V245.07H20.89Z" fill="#575756"/>
<path d="M48.53 254.61C49.25 254.5 49.95 254.44 50.63 254.44C51.31 254.44 52.02 254.5 52.76 254.61V264.35C51.75 264.7 50.69 264.93 49.59 265.05C48.49 265.17 47.53 265.23 46.71 265.23C45 265.23 43.49 264.98 42.21 264.47C40.92 263.97 39.85 263.26 39 262.35C38.14 261.44 37.5 260.36 37.07 259.11C36.64 257.86 36.42 256.5 36.42 255.03C36.42 253.56 36.65 252.2 37.09 250.94C37.54 249.68 38.18 248.59 39.04 247.67C39.88 246.75 40.93 246.03 42.16 245.52C43.4 245 44.8 244.75 46.38 244.75C47.31 244.75 48.19 244.81 49 244.92C49.81 245.03 50.65 245.26 51.52 245.61C51.48 246.16 51.36 246.7 51.17 247.23C50.98 247.75 50.76 248.28 50.53 248.81C49.85 248.59 49.25 248.44 48.72 248.34C48.19 248.25 47.57 248.2 46.85 248.2C44.98 248.2 43.54 248.78 42.54 249.92C41.54 251.07 41.04 252.77 41.04 255.03C41.04 257.29 41.54 258.98 42.53 260.09C43.52 261.2 44.98 261.76 46.91 261.76C47.24 261.76 47.54 261.74 47.8 261.71C48.07 261.67 48.3 261.64 48.52 261.6V254.61H48.53Z" fill="#575756"/>
<path d="M57.0801 245.07C57.8001 244.96 58.5101 244.9 59.2101 244.9C59.9101 244.9 60.6301 244.95 61.3701 245.07V264.89C60.6301 265 59.9201 265.06 59.2401 265.06C58.5201 265.06 57.8001 265 57.0801 264.89V245.07Z" fill="#575756"/>
<path d="M69.88 255.72C69.22 255.48 68.62 255.22 68.1 254.93C67.57 254.64 67.13 254.31 66.76 253.91C66.39 253.52 66.11 253.04 65.9 252.49C65.7 251.94 65.59 251.27 65.59 250.5C65.59 249.56 65.76 248.74 66.1 248.02C66.44 247.3 66.92 246.7 67.54 246.21C68.17 245.72 68.91 245.36 69.79 245.11C70.67 244.86 71.65 244.74 72.74 244.74C73.73 244.74 74.66 244.82 75.53 244.99C76.4 245.16 77.31 245.39 78.26 245.71C78.14 246.78 77.83 247.83 77.32 248.85C77.03 248.74 76.73 248.64 76.43 248.52C76.13 248.41 75.81 248.32 75.47 248.24C75.13 248.17 74.75 248.11 74.32 248.06C73.89 248.02 73.4 247.99 72.86 247.99C72.53 247.99 72.19 248.02 71.85 248.08C71.51 248.13 71.2 248.23 70.93 248.38C70.66 248.53 70.44 248.74 70.26 249.03C70.09 249.32 70 249.69 70 250.14C70 250.51 70.07 250.82 70.21 251.06C70.34 251.31 70.53 251.52 70.76 251.69C70.99 251.86 71.25 252.01 71.55 252.13C71.84 252.25 72.13 252.36 72.42 252.47L74.17 253.1C74.91 253.38 75.58 253.66 76.19 253.96C76.79 254.25 77.31 254.62 77.73 255.05C78.15 255.48 78.47 256 78.71 256.62C78.95 257.24 79.06 257.99 79.06 258.9C79.06 259.84 78.88 260.69 78.52 261.46C78.16 262.24 77.64 262.9 76.96 263.45C76.28 264 75.44 264.44 74.43 264.75C73.43 265.06 72.27 265.22 70.97 265.22C70.33 265.22 69.75 265.2 69.24 265.16C68.73 265.12 68.25 265.06 67.79 264.98C67.33 264.9 66.88 264.79 66.43 264.66C65.98 264.53 65.51 264.38 65.03 264.19C65.09 263.66 65.2 263.1 65.35 262.52C65.5 261.94 65.69 261.36 65.9 260.77C66.72 261.08 67.49 261.32 68.21 261.47C68.93 261.63 69.7 261.71 70.52 261.71C71.74 261.71 72.71 261.49 73.41 261.06C74.11 260.63 74.46 259.97 74.46 259.09C74.46 258.65 74.38 258.28 74.21 257.99C74.04 257.69 73.83 257.44 73.57 257.24C73.31 257.04 73.01 256.87 72.68 256.73C72.35 256.6 72.01 256.46 71.66 256.33L69.88 255.72Z" fill="#575756"/>
<path d="M82.7001 245.07C83.4201 244.96 84.1101 244.9 84.7801 244.9C85.4601 244.9 86.1701 244.95 86.9101 245.07V261.42H94.1801C94.2401 261.73 94.28 262.03 94.3 262.32C94.32 262.61 94.33 262.88 94.33 263.13C94.33 263.42 94.32 263.71 94.3 264C94.28 264.29 94.2401 264.58 94.1801 264.89H82.7001V245.07Z" fill="#575756"/>
<path d="M102.57 245.07C102.98 245.01 103.37 244.97 103.74 244.95C104.11 244.92 104.52 244.91 104.96 244.91C105.35 244.91 105.73 244.92 106.1 244.95C106.47 244.98 106.88 245.02 107.32 245.07L113.89 264.89C113.09 265 112.32 265.06 111.56 265.06C110.82 265.06 110.1 265 109.39 264.89L108.22 260.92H101.27L100.07 264.89C99.3701 265 98.7001 265.06 98.0601 265.06C97.3401 265.06 96.6301 265 95.9301 264.89L102.57 245.07ZM107.24 257.59L104.81 249.26L102.27 257.59H107.24Z" fill="#575756"/>
<path d="M118.9 248.49H113.67C113.55 247.94 113.5 247.36 113.5 246.76C113.5 246.19 113.56 245.63 113.67 245.08H128.42C128.54 245.63 128.6 246.19 128.6 246.76C128.6 247.36 128.54 247.94 128.42 248.49H123.19V264.9C122.84 264.94 122.49 264.97 122.14 265C121.79 265.03 121.45 265.04 121.12 265.04C120.79 265.04 120.43 265.03 120.05 265.01C119.67 264.99 119.29 264.95 118.9 264.9V248.49Z" fill="#575756"/>
<path d="M131.95 245.07C132.67 244.96 133.38 244.9 134.08 244.9C134.78 244.9 135.5 244.95 136.24 245.07V264.89C135.5 265 134.79 265.06 134.11 265.06C133.39 265.06 132.67 265 131.95 264.89V245.07Z" fill="#575756"/>
<path d="M139.17 245.07C139.5 245.03 139.88 244.99 140.31 244.96C140.74 244.92 141.12 244.91 141.45 244.91C142.19 244.91 142.97 244.96 143.79 245.08L148.37 260.71L153.02 245.08C153.41 245.02 153.79 244.99 154.15 244.97C154.51 244.95 154.87 244.94 155.25 244.94C155.6 244.94 155.96 244.95 156.32 244.97C156.68 244.99 157.06 245.03 157.45 245.08L150.67 264.9C150.26 264.95 149.86 265 149.49 265.02C149.11 265.05 148.71 265.06 148.28 265.06C147.89 265.06 147.51 265.04 147.14 265.02C146.77 264.99 146.36 264.95 145.91 264.9L139.17 245.07Z" fill="#575756"/>
<path d="M163.97 245.07C164.38 245.01 164.77 244.97 165.14 244.95C165.51 244.92 165.92 244.91 166.37 244.91C166.76 244.91 167.14 244.92 167.51 244.95C167.88 244.98 168.29 245.02 168.74 245.07L175.31 264.89C174.51 265 173.73 265.06 172.97 265.06C172.23 265.06 171.51 265 170.81 264.89L169.64 260.92H162.69L161.49 264.89C160.79 265 160.12 265.06 159.47 265.06C158.75 265.06 158.04 265 157.34 264.89L163.97 245.07ZM168.64 257.59L166.22 249.26L163.68 257.59H168.64Z" fill="#575756"/>
<path d="M46.4501 236.23C46.7001 236.74 46.91 237.27 47.08 237.81C47.24 238.35 47.3701 238.9 47.4501 239.45C46.4401 239.8 45.5301 240.03 44.7201 240.14C43.9101 240.25 43.04 240.3 42.11 240.3C40.46 240.3 39.0001 240.05 37.7601 239.54C36.5101 239.04 35.4701 238.33 34.6201 237.42C33.7701 236.51 33.1301 235.43 32.7101 234.18C32.2801 232.93 32.0701 231.57 32.0701 230.1C32.0701 228.63 32.2901 227.26 32.7401 226.01C33.1901 224.75 33.8401 223.66 34.6801 222.74C35.5301 221.82 36.5701 221.1 37.8101 220.59C39.0501 220.07 40.4501 219.82 42.0301 219.82C42.9701 219.82 43.8301 219.88 44.6201 219.99C45.4101 220.1 46.2601 220.33 47.1801 220.68C47.1401 221.23 47.02 221.77 46.83 222.29C46.64 222.82 46.4201 223.34 46.1901 223.88C45.5101 223.66 44.9001 223.5 44.3801 223.41C43.8501 223.32 43.2301 223.27 42.5101 223.27C40.6401 223.27 39.2001 223.85 38.2001 225C37.1901 226.15 36.6901 227.85 36.6901 230.11C36.6901 234.59 38.7101 236.84 42.7401 236.84C43.4601 236.84 44.0901 236.8 44.6401 236.7C45.1601 236.61 45.7701 236.45 46.4501 236.23Z" fill="#575756"/>
<path d="M56.0901 220.15C56.5001 220.09 56.8901 220.05 57.2601 220.03C57.6301 220 58.0401 219.99 58.4901 219.99C58.8801 219.99 59.2601 220 59.6301 220.03C60.0001 220.06 60.4101 220.1 60.8601 220.15L67.4301 239.98C66.6301 240.09 65.8501 240.15 65.0901 240.15C64.3501 240.15 63.6301 240.09 62.9301 239.98L61.7601 236.01H54.8001L53.6101 239.98C52.9101 240.09 52.2401 240.15 51.5901 240.15C50.8701 240.15 50.1601 240.09 49.4601 239.98L56.0901 220.15ZM60.7601 232.67L58.3401 224.34L55.8001 232.67H60.7601Z" fill="#575756"/>
<path d="M70.96 220.15C71.74 220.04 72.48 219.99 73.2 219.99C73.96 219.99 74.71 220.04 75.45 220.15L80.27 231.51L85.24 220.15C85.84 220.04 86.52 219.99 87.26 219.99C88 219.99 88.71 220.04 89.39 220.15L90.38 239.98C89.64 240.09 88.94 240.15 88.28 240.15C87.62 240.15 86.96 240.09 86.32 239.98L85.8 226.53L81.54 235.85C81.27 235.89 80.98 235.92 80.69 235.95C80.4 235.98 80.11 235.99 79.81 235.99C79.56 235.99 79.3 235.98 79.05 235.96C78.8 235.95 78.53 235.91 78.26 235.85L74.29 226.33L73.88 239.98C73.26 240.09 72.66 240.15 72.07 240.15C71.45 240.15 70.81 240.09 70.15 239.98L70.96 220.15Z" fill="#575756"/>
<path d="M99.7001 220.15C100.11 220.09 100.5 220.05 100.87 220.03C101.24 220 101.65 219.99 102.1 219.99C102.49 219.99 102.87 220 103.24 220.03C103.61 220.06 104.02 220.1 104.47 220.15L111.04 239.98C110.24 240.09 109.46 240.15 108.7 240.15C107.96 240.15 107.24 240.09 106.54 239.98L105.37 236.01H98.4201L97.2201 239.98C96.5201 240.09 95.8501 240.15 95.2001 240.15C94.4801 240.15 93.7701 240.09 93.0701 239.98L99.7001 220.15ZM104.38 232.67L101.96 224.34L99.4101 232.67H104.38Z" fill="#575756"/>
<path d="M114.19 220.15C115.04 220.06 115.85 219.98 116.6 219.92C117.35 219.86 118.18 219.82 119.1 219.82C120.17 219.82 121.23 219.91 122.27 220.1C123.31 220.29 124.25 220.61 125.09 221.08C125.93 221.55 126.61 222.18 127.12 222.98C127.63 223.78 127.9 224.79 127.9 226.03C127.9 226.77 127.8 227.41 127.61 227.97C127.41 228.53 127.17 229.02 126.86 229.45C126.56 229.88 126.23 230.24 125.88 230.54C125.53 230.84 125.2 231.09 124.89 231.27L124.39 231.57L129.5 239.95C129.11 239.99 128.7 240.02 128.27 240.06C127.84 240.1 127.4 240.11 126.95 240.11C126.21 240.11 125.48 240.06 124.76 239.94L119.27 230.73L119.97 230.4C120.24 230.27 120.57 230.11 120.96 229.9C121.35 229.7 121.72 229.45 122.09 229.14C122.45 228.84 122.75 228.47 123.01 228.04C123.26 227.61 123.39 227.1 123.39 226.51C123.39 225.35 123.04 224.5 122.34 223.96C121.64 223.42 120.73 223.15 119.62 223.15C119.19 223.15 118.8 223.18 118.45 223.23V239.97C118.1 240.01 117.75 240.04 117.4 240.07C117.05 240.09 116.71 240.11 116.38 240.11C116.05 240.11 115.7 240.1 115.33 240.08C114.96 240.06 114.58 240.02 114.19 239.97V220.15Z" fill="#575756"/>
<path d="M137.3 220.15C137.71 220.09 138.1 220.05 138.47 220.03C138.84 220 139.25 219.99 139.7 219.99C140.09 219.99 140.47 220 140.84 220.03C141.21 220.06 141.62 220.1 142.07 220.15L148.64 239.98C147.84 240.09 147.06 240.15 146.3 240.15C145.56 240.15 144.84 240.09 144.14 239.98L142.97 236.01H136.02L134.82 239.98C134.12 240.09 133.45 240.15 132.81 240.15C132.09 240.15 131.38 240.09 130.68 239.98L137.3 220.15ZM141.97 232.67L139.55 224.34L137.01 232.67H141.97Z" fill="#575756"/>
<path d="M58.4401 217.27C58.9901 217.27 59.28 217.89 59.36 218.11C60.12 218.14 60.9701 218.2 61.9301 218.23C61.9301 218.23 60.7801 215.41 58.4401 215.41C56.1001 215.41 54.9501 218.23 54.9501 218.23C55.9101 218.15 56.7501 218.11 57.5201 218.09C57.6201 217.87 57.9001 217.27 58.4401 217.27Z" fill="#575756"/>
<path d="M80.47 168.32V205.11L81.51 204.57L81.55 167.53L80.47 168.32Z" fill="#FDC300"/>
<path d="M80.47 194.11L81.52 193.68L81.51 204.57L80.47 205.11V194.11Z" fill="#007632"/>
<path d="M19.61 161.21V155.01C44.83 161.61 69.11 180.06 80.47 194.1V205.1C65.21 185.99 43.66 170.69 21.64 163.46C20.76 163.16 19.65 162.72 19.61 161.21Z" fill="#00A13A"/>
<path d="M80.45 168.3L80.42 168.26C79.92 167.69 79.41 167.19 78.89 166.64C76.65 164.3 74.22 161.96 71.59 159.66C50.64 141.67 23.66 133.42 19.61 132.26V155.02C44.83 161.62 69.11 180.07 80.47 194.11V168.32C80.46 168.32 80.46 168.31 80.45 168.3Z" fill="#FFD500"/>
<path d="M71.59 159.66C74.22 161.96 76.65 164.3 78.89 166.64C78.9 166.65 78.92 166.67 78.93 166.68C79.44 167.22 79.98 167.76 80.47 168.32L81.55 167.52C61.4 145.11 31.63 134.75 20.51 131.39L19.6 132.25C23.66 133.42 50.64 141.67 71.59 159.66Z" fill="#FFF377"/>
<path d="M100.85 168.32V205.11L99.81 204.57L99.77 167.53L100.85 168.32Z" fill="#FDC300"/>
<path d="M100.85 194.11L99.8 193.68L99.8101 204.57L100.85 205.11V194.11Z" fill="#007632"/>
<path d="M161.71 161.21V155.01C136.49 161.61 112.21 180.06 100.85 194.1V205.1C116.11 185.99 137.66 170.69 159.68 163.46C160.56 163.16 161.67 162.72 161.71 161.21Z" fill="#00A13A"/>
<path d="M100.87 168.3L100.9 168.26C101.41 167.69 101.91 167.19 102.43 166.64C104.67 164.3 107.1 161.96 109.73 159.66C130.68 141.67 157.66 133.42 161.71 132.26V155.02C136.49 161.62 112.21 180.07 100.85 194.11V168.32C100.86 168.32 100.86 168.31 100.87 168.3Z" fill="#FFD500"/>
<path d="M109.73 159.66C107.1 161.96 104.67 164.3 102.43 166.64C102.41 166.65 102.4 166.67 102.38 166.69C101.87 167.22 101.34 167.77 100.84 168.33L99.76 167.54C119.91 145.12 149.68 134.77 160.8 131.4L161.71 132.26C157.66 133.42 130.68 141.67 109.73 159.66Z" fill="#FFF377"/>
<path d="M160.81 131.39C160.81 131.39 111.16 90.82 90.66 6.20001C70.16 90.82 20.51 131.39 20.51 131.39C25.75 132.98 35.13 136.12 45.69 141.34C62.62 123.79 79.18 103.73 90.65 75.16C102.12 103.73 118.68 123.79 135.61 141.34C146.19 136.11 155.57 132.98 160.81 131.39Z" fill="#FDC300"/>
<path d="M20.51 131.39C25.75 132.98 35.13 136.12 45.69 141.34L48.77 138.08C34.42 131.39 20.51 131.39 20.51 131.39Z" fill="#F9B000"/>
<path d="M160.81 131.39C155.57 132.98 146.19 136.12 135.63 141.34L132.55 138.08C146.9 131.39 160.81 131.39 160.81 131.39Z" fill="#F9B000"/>
</svg>
