<svg version="1.2" xmlns="http://www.w3.org/2000/svg" viewBox="0 0 840 452" width="840" height="452">
	<title>Marca_GDF_Reduzida_Horizontal</title>
	<style>
		.s0 { fill: #006bb5 } 
		.s1 { fill: #ffffff } 
		.s2 { fill: #fff100 } 
		.s3 { fill: #f9a51a } 
		.s4 { fill: #f26f21 } 
	</style>
	<g id="Layer 1">
		<g id="&lt;Group&gt;">
			<path id="&lt;Path&gt;" class="s0" d="m19.2 452.3h801.6c10.6 0 19.2-8.6 19.2-19.2v-413.8c0-10.6-8.6-19.2-19.2-19.2h-801.6c-10.6 0-19.2 8.6-19.2 19.2v413.8c0 10.6 8.6 19.2 19.2 19.2z"/>
			<g id="&lt;Group&gt;">
				<path id="&lt;Compound Path&gt;" class="s1" d="m483.3 312q-9.5 4-19.1 4-15.2 0-27.4-5.3-12.1-5.3-20.5-14.5-8.3-9.3-12.8-21.8-4.4-12.6-4.4-27 0-14.9 4.4-27.6 4.5-12.7 12.8-22.1 8.4-9.5 20.5-14.9 12.2-5.3 27.4-5.3 10.2 0 19.7 3 9.6 3.1 17.3 9 7.7 5.9 12.7 14.7 5 8.7 6.1 20h-27.8q-2.6-11.1-10-16.7-7.5-5.6-18-5.6-9.9 0-16.7 3.8-6.9 3.8-11.1 10.2-4.3 6.4-6.3 14.6-1.9 8.2-1.9 16.9 0 8.3 1.9 16.2 2 7.9 6.3 14.2 4.2 6.3 11.1 10.1 6.8 3.8 16.7 3.8 14.4 0 22.3-7.3 7.9-7.3 9.2-21.3h-29.3v-21.7h55.6v71.6h-18.5l-3-15q-7.8 10-17.2 14z"/>
				<path id="&lt;Compound Path&gt;" fill-rule="evenodd" class="s1" d="m602.7 180.6q12.8 0 23.9 4.1 11 4.1 19.1 12.2 8 8.2 12.6 20.4 4.5 12.3 4.5 28.8 0 14.4-3.7 26.7-3.7 12.2-11.2 21.1-7.5 8.9-18.7 14-11.3 5.1-26.5 5.1h-57.1v-132.4zm-2 108q6.3 0 12.2-2.1 5.9-2 10.6-6.8 4.6-4.7 7.4-12.3 2.8-7.6 2.8-18.5 0-10.1-2-18.1-1.9-8.1-6.4-13.8-4.4-5.8-11.8-8.9-7.3-3-18-3h-20.8v83.5z"/>
				<path id="&lt;Compound Path&gt;" class="s1" d="m776.1 180.6v24.5h-63.9v30.6h55.4v22.6h-55.4v54.7h-29.2v-132.4z"/>
			</g>
			<g id="&lt;Group&gt;">
				<g id="&lt;Group&gt;">
					<g id="&lt;Group&gt;">
						<path id="&lt;Path&gt;" class="s1" d="m273.8 388.2c-4.5 0-20.1-0.8-32-11.7-8.9-8.3-12.1-20.2-12.5-35.6-0.4-14.4 4.4-26.8 14.3-37.1 18-18.4 47.3-23.4 50.6-23.4h0.2q0.9 0 1.8 0l1.1 0.1v4.1h-1.2q-0.8 0-1.7-0.1h-0.2c-3.1 0-30.6 4.7-47.6 22.2-9.1 9.4-13.6 20.9-13.2 34.1 0.4 14.2 3.1 25.2 11.2 32.6 12.6 11.5 30.3 10.7 30.5 10.7h501.5v4.1h-501.4c-0.1 0-0.6 0-1.4 0z"/>
					</g>
					<g id="&lt;Group&gt;">
						<path id="&lt;Path&gt;" class="s1" d="m172.1 388.2c4.5 0 18.5-0.8 30.4-11.7 9-8.3 15.3-20.2 15.8-35.6 0.4-14.4-4.5-26.8-14.4-37.1-18-18.4-47.2-23.4-50.5-23.4h-0.3q-0.9 0-1.8 0l-1.1 0.1v4.1h1.2q0.8 0 1.7-0.1h0.3c3.1 0 30.5 4.7 47.5 22.2 9.2 9.4 13.6 20.9 13.2 34.1-0.4 14.2-6.3 25.2-14.4 32.6-12.5 11.5-28.6 10.7-28.8 10.7h-106.8v4.1h106.7c0 0 0.5 0 1.3 0z"/>
					</g>
				</g>
				<g id="&lt;Group&gt;">
					<path id="&lt;Path&gt;" class="s2" d="m151.1 285.3q0-1.1 0.2-2.3c-6.5-1.6-12.3-4.8-17.1-9.1-1.5 1.2-2.8 2.6-3.9 4.2q0.6 2 0.6 4.2c0 3.5-1.1 6.7-2.8 9.5 1.5 5.9 6.3 10.6 12.3 12.2 1.4-3.9 5.2-6.8 9.6-6.8 2.5 0 4.8 1 6.6 2.4q0.7-0.7 1.4-1.5c-4.2-2.8-6.9-7.4-6.9-12.8z"/>
					<path id="&lt;Path&gt;" class="s2" d="m107.4 290.2c0 2.9-1.1 5.5-2.8 7.5q0.8 0.4 1.6 0.8c2.3-2.9 5.9-4.7 9.8-4.7 3 0 5.6 1 7.7 2.6 1.8-1.3 3.2-2.8 4.4-4.6q-0.6-2.1-0.6-4.3c0-3.5 1.1-6.7 2.8-9.4q-0.5-2.2-1.6-4.2c-3 1.2-6.2 1.9-9.7 1.9-4.9 0-9.4-1.4-13.3-3.8q0 0 0 0c-2 0.9-4.2 1.4-6.6 1.4q-0.5 0-1.1 0c-1 1.6-1.7 3.4-2.1 5.3 6.4 0 11.5 5.2 11.5 11.5z"/>
					<path id="&lt;Path&gt;" class="s3" d="m128.1 291.8c1.7-2.8 2.8-6 2.8-9.5q0-2.2-0.6-4.2c-1.7 2.7-2.8 5.9-2.8 9.4q0 2.2 0.6 4.3z"/>
					<g id="&lt;Group&gt;">
						<path id="&lt;Path&gt;" class="s2" d="m109.9 265q0.1-0.1 0.3-0.1-0.2 0-0.3 0.1z"/>
						<path id="&lt;Path&gt;" class="s2" d="m93.6 250.3c0-3.2 0.6-6.3 1.7-9.1-2 0.4-3.8 1.2-5.4 2.3q0.3 1.1 0.3 2.3c0 4.6-3.1 8.4-7.3 9.4q-0.1 0.9-0.1 1.9c0 8.6 6.7 15.7 15.2 16.3 1-1.7 2.2-3.2 3.7-4.4-5-4.7-8.1-11.3-8.1-18.7z"/>
						<path id="&lt;Path&gt;" class="s2" d="m111.3 264.7q0.2 0 0.4 0-0.2 0-0.4 0z"/>
						<path id="&lt;Path&gt;" class="s2" d="m108.3 265.3q0.1 0 0.2 0-0.1 0-0.2 0z"/>
						<path id="&lt;Path&gt;" class="s2" d="m102.8 268.1q0.1-0.1 0.2-0.2-0.1 0.1-0.2 0.2z"/>
						<path id="&lt;Path&gt;" class="s2" d="m104 267.2q0.1 0 0.2-0.1-0.1 0.1-0.2 0.1z"/>
						<path id="&lt;Path&gt;" class="s2" d="m106.8 265.9q0.1-0.1 0.3-0.2-0.2 0.1-0.3 0.2z"/>
						<path id="&lt;Path&gt;" class="s2" d="m105.5 266.4q0.1 0 0.1-0.1 0 0.1-0.1 0.1z"/>
					</g>
					<path id="&lt;Path&gt;" class="s3" d="m101.7 269c-1.5 1.2-2.7 2.7-3.7 4.4q0.6 0 1.1 0c2.4 0 4.6-0.5 6.6-1.4q-2.2-1.3-4-3z"/>
					<path id="&lt;Path&gt;" class="s2" d="m89.9 243.5c-0.4-1.6-1.2-3.2-2.4-4.4-1.6 1.9-4 3.1-6.6 3.1-2.8 0-5.3-1.3-6.9-3.4-1.9 1.7-3.1 4.2-3.1 7 0 1.8 0.5 3.5 1.4 5q0.4-0.1 0.9-0.1c3.3 0 6.1 2 7.4 4.8q1.2 0 2.3-0.3c0.5-4.8 3.2-9.1 7-11.7z"/>
					<path id="&lt;Path&gt;" class="s2" d="m97.8 215.6q0-1.4 0.1-2.8-1.4-0.3-2.9-0.3c-1.6 0-3.1 0.3-4.5 0.8q0 0.1 0 0.2c0 4.5-3.6 8.2-8 8.4q-0.4 1.4-0.5 3c4.3 0.5 7.6 4.2 7.6 8.6 0 1.2-0.3 2.4-0.7 3.5 1.8 0.9 3.9 1.5 6.1 1.5q0.8 0 1.5-0.1c1.7-3.1 4-5.9 6.8-8.1-3.4-3.9-5.5-9-5.5-14.7z"/>
					<g id="&lt;Group&gt;">
						<path id="&lt;Path&gt;" class="s2" d="m105.6 228.7q-0.1 0.1-0.2 0.2 0.1-0.1 0.2-0.2z"/>
						<path id="&lt;Path&gt;" class="s2" d="m122.2 193.3c-1.7 7.4-8.3 12.9-16.3 12.9-1.9 0-3.8-0.3-5.6-1-1.2 2.4-2 4.9-2.4 7.6 5.8 1.4 10.1 6.5 10.1 12.7q0 1-0.2 2 0 0 0 0c3.4-1.7 7.2-2.6 11.2-2.6 2.1 0 4.2 0.3 6.1 0.7 3.6-7.1 9.3-13.1 16.3-17-2.7-8.3-10.2-14.4-19.2-15.3z"/>
					</g>
					<path id="&lt;Path&gt;" class="s3" d="m119 224.9c-4 0-7.8 0.9-11.2 2.6-0.3 1.9-1 3.7-2 5.3 3.9 3.2 8.9 5.2 14.4 5.2q0.5 0 1 0c0.6-4.4 2-8.6 3.9-12.4-1.9-0.4-4-0.7-6.1-0.7z"/>
					<path id="&lt;Path&gt;" class="s2" d="m158.3 301.4q-0.8-1-1.7-1.8c-3.1 3.1-7.3 4.9-12 4.9q-2.2 0-4.2-0.5-0.5 1.3-0.6 2.8c1.9 0.3 3.6 1.3 4.8 2.7q0 0 0.1 0.1 0.1 0.2 0.3 0.4 0.1 0.1 0.1 0.2 0.2 0.2 0.3 0.3 0.1 0.2 0.2 0.3 0.1 0.2 0.1 0.4 0.1 0.1 0.2 0.3 0.1 0.2 0.2 0.3 0 0.2 0.1 0.4 0.1 0.2 0.1 0.4 0.1 0.2 0.1 0.4 0.1 0.1 0.1 0.3 0 0.2 0.1 0.5 0 0.1 0 0.3 0 0.4 0 0.8 0 0.5 0 1-0.1 0.1-0.1 0.2 0 0.5-0.2 1c1.2 0.4 2.4 0.7 3.7 0.7 4.4 0 8.2-2.9 9.6-6.8-1.3-1.5-2.2-3.6-2.2-5.8 0-1.3 0.3-2.6 0.9-3.8z"/>
					<path id="&lt;Path&gt;" class="s2" d="m139.8 307.5q0-0.3 0-0.7-0.6-0.1-1.3-0.1c-4.5 0-8.1 3.7-8.1 8.2 0 4.4 3.6 8.1 8.1 8.1 3.7 0 6.9-2.5 7.8-5.9-3.8-1.5-6.5-5.2-6.5-9.6z"/>
					<path id="&lt;Path&gt;" class="s2" d="m181.7 284.4c-2.3-0.6-4.4-1.5-6.2-2.8-4.5 1.7-9.3 2.6-14.3 2.6q0.1 0 0.2 0 0.3 1.6 0.3 3.3c0 4-1.4 7.7-3.7 10.6q0.9 0.6 1.9 1.1c1.5-1.7 3.8-2.7 6.2-2.7 2.6 0 4.9 1.1 6.5 2.9 5.4-2.4 9.1-7.8 9.1-14.1q0-0.5 0-0.9z"/>
					<path id="&lt;Path&gt;" class="s3" d="m158 298.1c2.3-2.9 3.7-6.6 3.7-10.6q0-1.7-0.3-3.3-0.1 0-0.2 0c-3.4 0-6.7-0.4-9.9-1.2q-0.2 1.2-0.2 2.3c0 5.4 2.7 10 6.9 12.8z"/>
					<path id="&lt;Path&gt;" class="s2" d="m204.2 260.2c-2-0.1-3.9-0.4-5.7-0.9-3.5 8.5-9.9 15.6-18 20q1 2.4 1.2 5.1 2.1 0.5 4.4 0.5 1.5 0 3-0.3-0.1-0.3-0.2-0.6 0-0.1 0-0.2-0.1-0.2-0.2-0.5 0-0.2 0-0.3 0-0.3-0.1-0.5 0-0.4 0-0.8c0-4.8 3.9-8.7 8.7-8.7q0.4 0 0.8 0 0.2 0 0.3 0.1 0.3 0 0.5 0 0.2 0.1 0.4 0.1 0.2 0.1 0.4 0.1 0.2 0.1 0.4 0.1 0.2 0.1 0.4 0.2 0.1 0.1 0.3 0.1 0.2 0.1 0.4 0.2 0.2 0.1 0.3 0.2 0.2 0.1 0.3 0.1 0.5 0.3 1 0.7 0 0 0 0c1.4-2.7 2.3-5.7 2.3-9 0-2-0.4-3.9-0.9-5.7z"/>
					<path id="&lt;Path&gt;" class="s3" d="m108 225.5c0-6.2-4.3-11.3-10.1-12.7q-0.1 1.4-0.1 2.8c0 5.7 2.1 10.8 5.5 14.7q1-0.8 2.1-1.4 0.1-0.1 0.2-0.2 1.1-0.7 2.2-1.2 0 0 0 0 0.2-1 0.2-2z"/>
					<path id="&lt;Path&gt;" class="s4" d="m107.8 227.5q-2.4 1.2-4.5 2.8 1.1 1.3 2.5 2.5c1-1.6 1.7-3.4 2-5.3z"/>
					<path id="&lt;Path&gt;" class="s2" d="m73.7 213.5q0-1.1 0.3-2.1c-1.1-0.6-2.4-1-3.7-1-4.2 0-7.5 3.4-7.5 7.5 0 4.1 3.3 7.5 7.5 7.5 3.2 0 6-2.1 7-5-2.2-1.5-3.6-4-3.6-6.9z"/>
					<path id="&lt;Path&gt;" class="s2" d="m120.2 193.2q1 0 2 0.1 0.5-1.8 0.5-3.8 0-2.7-0.8-5-1 0.2-2 0.2c-6.9 0-12.5-5.3-13-11.9q-0.5-0.1-1-0.1-2 0-4 0.5c0 4.7-3.8 8.4-8.5 8.4q-1.1 0-2.1-0.2c-1.3 2.4-2.1 5.1-2.1 8.1 0 7.3 4.6 13.4 11.1 15.7 3.8-7.1 11.2-12 19.9-12z"/>
					<path id="&lt;Path&gt;" class="s2" d="m84.9 173.1c0-2.5 1-4.7 2.7-6.3-1.3-1.7-3.3-2.8-5.6-2.8-3.9 0-7 3.1-7 7 0 3.9 3.1 7.1 7 7.1 1.4 0 2.7-0.4 3.8-1.1-0.6-1.2-0.9-2.5-0.9-3.9z"/>
					<path id="&lt;Path&gt;" class="s2" d="m119.9 158.5q1 0 1.9 0.2 0.1-0.5 0.1-1c0-6.4-5.2-11.6-11.7-11.6-6.4 0-11.6 5.2-11.6 11.6 0 5.4 3.6 9.9 8.5 11.2 1.2-5.9 6.5-10.4 12.8-10.4z"/>
					<path id="&lt;Path&gt;" class="s2" d="m155.3 162.4c0-4.3 1.8-8.3 4.7-11.1-2.4-1.9-5.1-3.4-8.1-4.3-4.1 4.1-9.7 6.7-15.9 6.7-2.6 0-5.1-0.4-7.4-1.3-2 1.9-3.7 4.2-4.9 6.7 5.4 1.6 9.3 6.6 9.3 12.5 0 5.1-3 9.6-7.3 11.7 4.2 6 11.3 9.9 19.2 9.9q0.4 0 0.7 0c3.6-7.4 11.1-12.5 19.8-12.5q0.2 0 0.4 0 0.8-1.5 1.4-3.2c-6.8-1.7-11.9-7.8-11.9-15.1z"/>
					<path id="&lt;Path&gt;" class="s2" d="m161.2 203.4c9.1 0 17.6 3.1 24.4 8.2 1-2.4 1.7-5 1.8-7.8-5.9-2.4-10-8.2-10-14.9q0-2.2 0.5-4.3c-3.4-2.4-7.6-3.8-12.1-3.9-3.9 7.3-11.5 12.3-20.2 12.5-1.4 2.9-2.2 6.1-2.2 9.5q0 2.4 0.5 4.6c5.2-2.5 11.1-3.9 17.3-3.9z"/>
					<path id="&lt;Path&gt;" class="s2" d="m204.4 192c-5-3.2-8.3-8.7-8.3-15q0.1-2 0.5-3.9-1.6-0.3-3.2-0.3c-7.4 0-13.6 5-15.5 11.8 5.8 4 9.6 10.6 9.6 18.1q0 0.6-0.1 1.1c1.9 0.7 3.9 1.2 6 1.2 5.1 0 9.7-2.5 12.6-6.2-0.9-2.1-1.4-4.4-1.6-6.8z"/>
					<path id="&lt;Path&gt;" class="s2" d="m223.1 236.5c-7.9-0.8-14.3-7-15.4-14.8q-1.7-0.3-3.5-0.3c-3 0-5.8 0.7-8.3 1.9 3.6 6 5.7 13 5.7 20.5 0 3.4-0.4 6.6-1.2 9.7 1.7 1.9 3 4.2 3.8 6.7q0 0 0 0c3 0 5.8-0.7 8.3-1.9-0.7-1.4-1-2.8-1-4.4 0-5.8 4.7-10.5 10.4-10.5q0.8 0 1.5 0.1 0.2-1.3 0.2-2.7 0-2.2-0.5-4.3z"/>
					<path id="&lt;Path&gt;" class="s2" d="m228.9 257.6q-0.1-0.1-0.2-0.2-0.3-0.4-0.6-0.9-0.1-0.1-0.2-0.3-0.2-0.4-0.4-0.8-0.1-0.2-0.2-0.4-0.2-0.4-0.4-0.8-0.1-0.2-0.1-0.5-0.2-0.4-0.3-0.8 0-0.2-0.1-0.5-0.1-0.4-0.2-0.9 0-0.2 0-0.4-0.1-0.7-0.1-1.4 0-0.6 0.1-1.2 0-0.2 0-0.3 0.1-0.5 0.1-1 0.1-0.1 0.1-0.2 0.1-0.5 0.3-1 0-0.1 0-0.1 0.2-0.6 0.4-1.1c-1.1-0.7-2.4-1.1-3.7-1.3-1 6.6-5.2 12.1-10.9 14.8 1.6 3.6 5.2 6.1 9.4 6.1 3.8 0 7-2 8.9-4.9q-1.1-0.8-1.9-1.9z"/>
					<path id="&lt;Path&gt;" class="s2" d="m244.9 249.4c-4.3-2.7-7.5-7-8.9-12-4 0.9-7.3 3.7-8.9 7.4 3.2 1.8 5.3 5.2 5.3 9.1 0 2.1-0.6 4-1.6 5.6 2.1 1.8 4.9 2.8 7.9 2.8q1.3 0 2.5-0.3-0.2-1.2-0.2-2.4c0-3.9 1.5-7.5 3.9-10.2z"/>
					<path id="&lt;Path&gt;" class="s2" d="m269.7 227.8q0-0.7 0-1.5c-9.7-0.4-18.1-5.7-22.9-13.5q-2.6 1.3-4.8 3.3 0.3 1.5 0.3 3.1c0 5.7-2.8 10.8-7.1 14q0.2 2.2 0.8 4.2 1.3-0.3 2.7-0.3c5.4 0 10 3.4 11.7 8.2 1.9-0.8 4-1.3 6.2-1.3 4.5 0 8.6 2 11.4 5.1 2-1.3 3.7-3 5.1-4.9-2.2-5-3.4-10.5-3.4-16.4z"/>
					<path id="&lt;Path&gt;" class="s2" d="m244.8 187.4q-0.3 0-0.6 0c-5 0-9.6-1.7-13.2-4.6-2.4 7-9.1 12.1-16.9 12.1-1.9 0-3.7-0.3-5.5-0.9-0.5 1.8-1.4 3.4-2.6 4.8 1.4 3.3 3.6 6.2 6.3 8.4 3.2-3.3 7.7-5.4 12.6-5.4 5.4 0 10.2 2.5 13.4 6.3 1.8-1.3 3.5-2.9 4.9-4.7q-0.5-2.6-0.5-5.3c0-3.8 0.7-7.4 2.1-10.7z"/>
					<g id="&lt;Group&gt;">
						<path id="&lt;Path&gt;" class="s2" d="m271.2 254.4c-0.7-2-1.8-3.8-3.2-5.3-3.3 2.3-7.4 3.6-11.8 3.6q-2.7 0-5.2-0.6 0 0 0 0c-0.9 5-4.8 8.9-9.8 9.9q0.3 1.6 0.8 3c1.5-0.8 3.2-1.2 4.9-1.2 5.8 0 10.4 4.6 10.4 10.3q0 0.5 0 1 1.5 0 2.9-0.4 0-0.2-0.1-0.4c0-8.4 4.5-15.8 11.1-19.9z"/>
						<path id="&lt;Path&gt;" class="s2" d="m246.5 250.3q-0.1 0-0.3-0.1 0.2 0.1 0.3 0.1z"/>
						<path id="&lt;Path&gt;" class="s2" d="m249.4 251.6q0 0 0 0 0 0 0 0z"/>
						<path id="&lt;Path&gt;" class="s2" d="m247.9 251q-0.1 0-0.2-0.1 0.1 0.1 0.2 0.1z"/>
					</g>
					<path id="&lt;Path&gt;" class="s3" d="m241.2 262c5-1 8.9-4.9 9.8-9.9q0 0 0 0-0.8-0.2-1.6-0.5 0 0 0 0-0.8-0.3-1.5-0.6-0.1 0-0.2-0.1-0.6-0.2-1.2-0.6-0.1 0-0.3-0.1-0.7-0.4-1.3-0.8c-2.4 2.7-3.9 6.3-3.9 10.2q0 1.2 0.2 2.4z"/>
					<path id="&lt;Path&gt;" class="s2" d="m265.3 314.6q0.2 0 0.4 0.1c0.6-1.1 0.9-2.4 0.9-3.7 0-4.4-3.5-7.9-7.8-7.9-4.3 0-7.9 3.5-7.9 7.9 0 4.1 3.2 7.5 7.2 7.8 1.5-2.5 4.2-4.2 7.2-4.2z"/>
					<path id="&lt;Path&gt;" class="s2" d="m331.3 262.9c-6.1 3.7-13.2 5.7-20.8 5.7q-2 0-3.9-0.2 0.7 2.9 0.7 5.9c0 5.4-1.8 10.3-4.8 14.3 1.3 1.9 2.8 3.6 4.7 4.9 2.9-2.9 6.9-4.7 11.3-4.7 4.6 0 8.7 1.9 11.6 5 5-3.5 8.2-9.3 8.2-15.9 0-6-2.7-11.4-7-15z"/>
					<path id="&lt;Path&gt;" class="s2" d="m318.8 297.4c-4.4 0-8.4-1.4-11.6-3.9q-0.8 0.8-1.4 1.6c2.5 2.4 4.1 5.8 4.1 9.6 0 3.9-1.6 7.3-4.3 9.7 3 4 7.6 6.5 12.9 6.5 8.9 0 16.1-7.2 16.1-16 0-4.3-1.7-8.2-4.5-11.1-3.2 2.3-7.1 3.6-11.3 3.6z"/>
					<path id="&lt;Path&gt;" class="s2" d="m299.5 291.8c-3.7 3.4-8.6 5.6-14 6-1.2 2-1.9 4.4-1.9 6.9q0 1.7 0.4 3.3 0.7-0.1 1.4-0.1c5.7 0 10.2 4.4 10.5 10q0.4 0 0.9 0c3.4 0 6.5-1.3 8.8-3.5-2-2.6-3.1-5.9-3.1-9.5 0-3.7 1.2-7.1 3.3-9.8-1.7-1.6-3.9-2.8-6.3-3.3z"/>
					<path id="&lt;Path&gt;" class="s2" d="m284 308c-5.1 0.7-9.1 5.1-9.1 10.4 0 5.8 4.7 10.6 10.5 10.6 5.9 0 10.6-4.8 10.6-10.6q0-0.3-0.1-0.5c-5.7-0.4-10.5-4.5-11.9-9.9z"/>
					<path id="&lt;Path&gt;" class="s2" d="m346 262.4c1.4-3.4 4.7-5.7 8.6-5.7q1.3 0 2.4 0.3c2.1-2.5 3.3-5.7 3.3-9.1q0-1.4-0.3-2.7-1.2 0.3-2.6 0.3c-3.4 0-6.4-1.5-8.5-3.9-2.5 6.9-6.8 13-12.3 17.6 2.5 2 5.7 3.2 9.1 3.2q0.2 0 0.3 0z"/>
					<path id="&lt;Path&gt;" class="s2" d="m333.7 208.9c1.7-7.7 8.4-13.6 16.6-14.2q-0.3-1.6-0.3-3.2 0-0.8 0.1-1.7c-2.3 1.1-4.8 1.6-7.5 1.6-5 0-9.6-2-12.9-5.3-1.4 2.7-2.2 5.6-2.2 8.8 0 5.5 2.4 10.5 6.2 14z"/>
					<path id="&lt;Path&gt;" class="s2" d=""/>
					<path id="&lt;Path&gt;" class="s2" d="m360.6 177.9q0 0 0 0z"/>
					<path id="&lt;Path&gt;" class="s2" d="m362 178.7q-0.1 0-0.1 0 0 0 0.1 0z"/>
					<path id="&lt;Path&gt;" class="s2" d="m360.8 175.8q0.2-1.4 0.2-2.8c0-5.9-2.8-11.2-7.2-14.6-2.1 4.2-6.4 7.1-11.4 7.1-4.9 0-9.2-2.8-11.3-6.9-4.2 3.4-6.9 8.6-6.9 14.4 0 5.2 2.1 9.8 5.5 13.1 3.3-6.3 10-10.7 17.7-10.7 3.5 0 6.8 0.9 9.6 2.5q1.8-1.3 3.8-2.1z"/>
					<path id="&lt;Path&gt;" class="s2" d="m342.6 154.6c4.2 0 8.1 1.4 11.2 3.8 0.9-1.7 1.3-3.6 1.3-5.6 0-7-5.7-12.7-12.7-12.7-2.4 0-4.6 0.6-6.5 1.7q0.3 1.1 0.3 2.2c0 4.2-2.7 7.9-6.5 9.2 0 2 0.5 3.8 1.4 5.4 3.1-2.5 7.1-4 11.5-4z"/>
					<path id="&lt;Path&gt;" class="s2" d="m272.7 218.5q0 0 0 0-0.1-0.2-0.2-0.3 0.1 0.1 0.2 0.3z"/>
					<path id="&lt;Path&gt;" class="s2" d="m276 224.2q0 0 0 0 0 0 0 0 0 0 0 0z"/>
					<path id="&lt;Path&gt;" class="s2" d="m275 222q0 0 0 0-0.1-0.1-0.1-0.2 0 0.1 0.1 0.2z"/>
					<path id="&lt;Path&gt;" class="s2" d="m274 220.3q0 0 0 0 0 0 0 0 0 0 0 0z"/>
					<path id="&lt;Path&gt;" class="s3" d="m279.3 201.5c-3.7 4.4-6.5 9.6-8.1 15.3 2.5 2.5 4.3 5.6 5.3 9 6.3-1.2 11.8-4.6 15.8-9.2-6.3-2.8-11.1-8.3-13-15.1z"/>
					<path id="&lt;Path&gt;" class="s2" d="m297.8 189.1c4-1.4 8.3-2.1 12.7-2.1 5 0 9.7 0.9 14.1 2.5-2-8-8-14.3-15.8-16.7-2.2 2.3-5.2 3.8-8.6 3.8-3 0-5.7-1.1-7.7-2.9q-2.1 0.9-3.9 2.2c4.2 3.4 7.4 7.9 9.2 13.2z"/>
					<path id="&lt;Path&gt;" class="s2" d="m292.5 173.7c2.9-1.2 6-1.9 9.4-1.9 2.4 0 4.7 0.3 6.9 1 1.8-2.1 3-4.8 3-7.8 0-6.4-5.2-11.6-11.6-11.6-1.4 0-2.8 0.3-4 0.7 0 4.7-3.3 8.5-7.6 9.6q0 0.6-0.1 1.3c0 3.5 1.6 6.6 4 8.7z"/>
					<path id="&lt;Path&gt;" class="s2" d="m296.2 154.1q0 0 0-0.1c0-3.8-2.2-7.2-5.3-8.8-2.6 3.4-6.7 5.6-11.3 5.6q-1.4 0-2.7-0.3c-0.4 1.1-0.7 2.3-0.7 3.5 0 5.5 4.5 10 10 10q1.3 0 2.4-0.3c0.5-4.4 3.5-8.1 7.6-9.6z"/>
					<path id="&lt;Path&gt;" class="s2" d="m286.2 144c1.7 0 3.3 0.4 4.7 1.2 1.8-2.4 2.9-5.4 2.9-8.6 0-7.9-6.4-14.3-14.2-14.3-7.9 0-14.3 6.4-14.3 14.3 0 6.9 5 12.7 11.6 13.9 1.4-3.8 5-6.5 9.3-6.5z"/>
					<path id="&lt;Path&gt;" class="s3" d="m253.8 172.6c0 3.9 1.5 7.4 4 9.9 4.9-3.9 8-10 8-16.7 0-2.5-0.4-4.8-1.1-7-6.3 1.5-10.9 7.1-10.9 13.8z"/>
					<path id="&lt;Path&gt;" class="s2" d="m244.5 179.4q0.4 0.7 0.8 1.4 0 0 0 0 0.7 1.5 1.2 3c1.9-3.3 4.5-6.1 7.6-8.4q-0.3-1.4-0.3-2.8c0-6.7 4.6-12.3 10.9-13.8-2.9-8.5-11-14.6-20.5-14.6-2.7 0-5.3 0.5-7.7 1.4q0.3 1.6 0.3 3.2c0 7-3.8 13-9.5 16.1q1.8 1.9 2.9 4.3 0.3 0.1 0.6 0.2 0.6 0.1 1.3 0.3 0.4 0.1 0.8 0.2 0.5 0.2 1 0.4 0.4 0.2 0.8 0.3 0.5 0.3 0.9 0.5 0.4 0.2 0.8 0.4 0.7 0.4 1.4 0.9 0.5 0.2 0.9 0.6 0.3 0.2 0.6 0.4 0.4 0.4 0.9 0.7 0.2 0.3 0.4 0.5 0.5 0.4 0.9 0.8 0.1 0.1 0.2 0.3 1.6 1.6 2.7 3.6 0.1 0 0.1 0.1z"/>
					<path id="&lt;Path&gt;" class="s3" d="m257.8 182.5c-1.8-1.9-3.2-4.4-3.7-7.1-3.1 2.3-5.7 5.1-7.6 8.4q0.5 1.6 0.8 3.3c3.9-0.5 7.6-2.2 10.5-4.6z"/>
					<g id="&lt;Group&gt;">
						<path id="&lt;Path&gt;" class="s4" d="m265.4 170.3c-4.2 0.9-8 2.6-11.3 5.1 0.5 2.7 1.9 5.2 3.7 7.1 3.8-3 6.5-7.3 7.6-12.2z"/>
					</g>
					<path id="&lt;Path&gt;" class="s2" d="m205 161.5c2.7-1.6 5.8-2.5 9.1-2.5 3.3 0 6.3 0.9 9 2.5 1.5-7.3 6.6-13.3 13.4-15.9-1.5-8.6-9-15.2-18.1-15.2q-2 0-3.8 0.4 0.6 2.1 0.6 4.4c0 8.5-6.7 15.4-15.1 15.9 0.5 4 2.3 7.6 4.9 10.4z"/>
					<path id="&lt;Path&gt;" class="s2" d="m200 148.8c0-8.8 6.2-16.2 14.6-18-1.9-6.7-8-11.5-15.3-11.5q-1.8 0-3.4 0.3 0 0.8 0.1 1.6c0 8.4-4.8 15.7-11.7 19.4q0.6 1.5 1.4 2.8 1.3-0.4 2.8-0.4c4.7 0 8.6 3.5 9.2 8q0.8 0.1 1.6 0.1 0.4 0 0.8 0-0.1-1.1-0.1-2.3z"/>
					<path id="&lt;Path&gt;" class="s2" d="m179.2 152.3q0-1.5 0.5-2.8c-2.5-1.7-5.5-2.7-8.8-2.7-4.2 0-8.1 1.7-10.9 4.5 5.2 4.4 8.6 10.9 8.6 18.3 0 2.8-0.5 5.4-1.4 7.9q1.8 0.5 3.7 0.5c8.6 0 15.6-7 15.6-15.6q0-0.5 0-1.1c-4.2-0.9-7.3-4.6-7.3-9z"/>
					<path id="&lt;Path&gt;" class="s2" d="m296.5 105.4q0 0 0 0c-1.3-0.7-2.7-1-4.3-1-5.1 0-9.2 4.1-9.2 9.1 0 5.1 4.1 9.2 9.2 9.2 5 0 9.1-4.1 9.1-9.2q0-0.6 0-1.2c-2.8-1-4.8-3.7-4.8-6.9z"/>
					<path id="&lt;Path&gt;" class="s2" d="m260.3 104.9q0-1.4 0.3-2.7c-3.2-2.5-7.2-4-11.5-4-10.5 0-19 8.5-19 19 0 10.5 8.5 19 19 19 10.4 0 18.9-8.5 18.9-19q0-0.7 0-1.3c-4.5-1.7-7.7-6-7.7-11z"/>
					<path id="&lt;Path&gt;" class="s2" d="m152.3 125c-7-1.5-12.3-7.6-12.5-14.9q-1.5-0.3-3.1-0.4c-1.9 2.9-5.1 4.8-8.8 4.8-1.6 0-3-0.4-4.4-1-1.9 1.4-3.6 3-5 4.8 0.6 1.3 0.9 2.8 0.9 4.4 0 4-2.2 7.5-5.4 9.3 0.1 9.4 6.2 17.4 14.6 20.4 4.3-4 10-6.5 16.3-6.5 2.4 0 4.8 0.4 7 1.1 2.8-3 4.9-6.8 5.7-11.1-2.7-3-4.6-6.8-5.3-10.9z"/>
					<path id="&lt;Path&gt;" class="s3" d="m152.3 125c0.7 4.1 2.6 7.9 5.3 10.9q0.4-2 0.4-4.2c0-2.3-0.3-4.4-1-6.5q-0.8 0.1-1.6 0.1-1.6 0-3.1-0.3z"/>
					<path id="&lt;Path&gt;" class="s2" d="m173.9 99.2c10.8 0 19.8 7.7 21.7 18 2.1-0.9 3.9-2.3 5.4-3.9-3.6-3.5-5.8-8.3-5.8-13.7 0-3.9 1.2-7.4 3.1-10.4-2.6-1.9-5.8-3-9.3-3-7.8 0-14.4 5.6-15.9 13q0.4 0 0.8 0z"/>
					<path id="&lt;Path&gt;" class="s3" d="m173.9 99.2q-0.4 0-0.8 0-0.3 1.5-0.3 3.2c0 9 7.3 16.2 16.2 16.2 2.4 0 4.6-0.5 6.6-1.4-1.9-10.3-10.9-18-21.7-18z"/>
					<path id="&lt;Path&gt;" class="s2" d="m167.7 100.1c-2.9-3.7-7.3-6-12.3-6-8.6 0-15.6 7-15.6 15.6q0 0.2 0 0.4c5 0.8 9.3 3.3 12.5 6.9 1.6-8.1 7.6-14.6 15.4-16.9z"/>
					<path id="&lt;Path&gt;" class="s3" d="m152.3 117c2.1 2.3 3.8 5.1 4.7 8.2 7.9-0.8 14-7.4 14-15.5 0-3.7-1.2-7-3.3-9.6-7.8 2.3-13.8 8.8-15.4 16.9z"/>
					<path id="&lt;Path&gt;" class="s2" d="m158.8 72.9c5.1 0 9.3 4.2 9.3 9.4 0 5.1-4.2 9.3-9.3 9.3-5.2 0-9.4-4.2-9.4-9.3 0-5.2 4.2-9.4 9.4-9.4z"/>
					<path id="&lt;Path&gt;" class="s2" d="m181.9 66.5c4.5 0 8.1 3.6 8.1 8.1 0 4.4-3.6 8.1-8.1 8.1-4.5 0-8.1-3.7-8.1-8.1 0-4.5 3.6-8.1 8.1-8.1z"/>
					<path id="&lt;Path&gt;" class="s2" d="m208.1 64.3c3.7 0 6.7 3 6.7 6.7 0 3.7-3 6.7-6.7 6.7-3.6 0-6.6-3-6.6-6.7 0-3.7 3-6.7 6.6-6.7z"/>
					<path id="&lt;Path&gt;" class="s2" d="m245.5 64.4c8.5 0 15.4 6.9 15.4 15.4 0 8.5-6.9 15.4-15.4 15.4-8.5 0-15.4-6.9-15.4-15.4 0-8.5 6.9-15.4 15.4-15.4z"/>
					<path id="&lt;Path&gt;" class="s2" d="m276.2 93.9c-1.5 1.1-3.4 1.8-5.4 1.8-1.6 0-3.1-0.4-4.4-1.1-2.9 1.5-5 4.3-5.8 7.6 4.2 3.2 7 8.1 7.4 13.7 1.2 0.4 2.6 0.7 4.1 0.7 6.4 0 11.7-5.3 11.7-11.7 0-5.1-3.1-9.3-7.6-11z"/>
					<path id="&lt;Path&gt;" class="s3" d="m268 115.9c-0.4-5.6-3.2-10.5-7.4-13.7q-0.3 1.3-0.3 2.7c0 5 3.2 9.3 7.7 11z"/>
					<path id="&lt;Path&gt;" class="s2" d="m266.4 94.6c1.7-1 3.6-1.5 5.7-1.5 1.4 0 2.8 0.3 4.1 0.8 2.3-1.7 3.8-4.4 3.8-7.4 0-5-4.1-9.1-9.2-9.1-5 0-9.1 4.1-9.1 9.1 0 3.5 1.9 6.5 4.7 8.1z"/>
					<path id="&lt;Path&gt;" class="s3" d="m272.1 93.1c-2.1 0-4 0.5-5.7 1.5 1.3 0.7 2.8 1.1 4.4 1.1 2 0 3.9-0.7 5.4-1.8-1.3-0.5-2.7-0.8-4.1-0.8z"/>
					<path id="&lt;Path&gt;" class="s2" d="m214.2 80.6c-6.6 0-12.5 3.4-15.9 8.6 4.2 2.9 6.9 7.7 6.9 13.2 0 4.2-1.6 8-4.2 10.9 3.4 3.3 8.1 5.3 13.2 5.3 10.5 0 19-8.5 19-19 0-10.5-8.5-19-19-19z"/>
					<path id="&lt;Path&gt;" class="s3" d="m198.3 89.2c-1.9 3-3.1 6.5-3.1 10.4 0 5.4 2.2 10.2 5.8 13.7 2.6-2.9 4.2-6.7 4.2-10.9 0-5.5-2.7-10.3-6.9-13.2z"/>
					<path id="&lt;Path&gt;" class="s2" d="m303.9 98.1c-4.1 0-7.4 3.3-7.4 7.3 2.6 1.4 4.4 3.9 4.8 6.9q1.2 0.5 2.6 0.5c4 0 7.3-3.3 7.3-7.4 0-4-3.3-7.3-7.3-7.3z"/>
					<path id="&lt;Path&gt;" class="s3" d="m301.3 112.3c-0.4-3-2.2-5.5-4.8-6.9q0 0 0 0c0 3.2 2 5.9 4.8 6.9z"/>
					<path id="&lt;Path&gt;" class="s2" d="m309.8 118.5c4.1 0 7.4 3.3 7.4 7.4 0 4-3.3 7.3-7.4 7.3-4.1 0-7.3-3.3-7.3-7.3 0-4.1 3.2-7.4 7.3-7.4z"/>
					<path id="&lt;Path&gt;" class="s2" d="m328.6 113.7c4.5 0 8.2 3.7 8.2 8.2 0 4.5-3.7 8.1-8.2 8.1-4.5 0-8.1-3.6-8.1-8.1 0-4.5 3.6-8.2 8.1-8.2z"/>
					<path id="&lt;Path&gt;" class="s3" d="m183.4 135.2c0 1.9 0.3 3.7 0.9 5.4 6.9-3.7 11.7-11 11.7-19.4q-0.1-0.8-0.1-1.6c-7.2 1.6-12.5 8-12.5 15.6z"/>
					<path id="&lt;Path&gt;" class="s3" d="m200 148.8q0 1.2 0.1 2.3c8.4-0.5 15.1-7.4 15.1-15.9q0-2.3-0.6-4.4c-8.4 1.8-14.6 9.2-14.6 18z"/>
					<path id="&lt;Path&gt;" class="s3" d="m297.8 189.1c0.9 2.8 1.5 5.8 1.5 9 0 7.1-2.6 13.5-7 18.5 3 1.3 6.2 2 9.6 2 12.9 0 23.4-10.5 23.4-23.4q0-2.9-0.7-5.7c-4.4-1.6-9.1-2.5-14.1-2.5-4.4 0-8.7 0.7-12.7 2.1z"/>
					<path id="&lt;Path&gt;" class="s2" d="m123.5 113.5c3.6-2.4 7.9-3.8 12.5-3.8q0.4 0 0.7 0c1.2-1.7 1.8-3.7 1.8-5.9 0-5.9-4.8-10.7-10.6-10.7-6 0-10.7 4.8-10.7 10.7 0 4.3 2.6 8.1 6.3 9.7z"/>
					<path id="&lt;Path&gt;" class="s3" d="m136 109.7c-4.6 0-8.9 1.4-12.5 3.8 1.4 0.6 2.8 1 4.4 1 3.7 0 6.9-1.9 8.8-4.8q-0.3 0-0.7 0z"/>
					<path id="&lt;Path&gt;" class="s2" d="m114 131.7c0-5 1.7-9.7 4.5-13.4-1.7-3.7-5.4-6.3-9.7-6.3-5.9 0-10.7 4.8-10.7 10.7 0 5.9 4.8 10.6 10.7 10.6 1.9 0 3.6-0.4 5.2-1.3q0-0.1 0-0.3z"/>
					<path id="&lt;Path&gt;" class="s3" d="m114 132c3.2-1.8 5.4-5.3 5.4-9.3 0-1.6-0.3-3.1-0.9-4.4-2.8 3.7-4.5 8.4-4.5 13.4q0 0.2 0 0.3z"/>
					<path id="&lt;Path&gt;" class="s2" d="m93 134.1c4.5 0 8.2 3.7 8.2 8.2 0 4.5-3.7 8.2-8.2 8.2-4.6 0-8.3-3.7-8.3-8.2 0-4.5 3.7-8.2 8.3-8.2z"/>
					<path id="&lt;Path&gt;" class="s3" d="m82.9 255.2c4.2-1 7.3-4.8 7.3-9.4q0-1.2-0.3-2.3c-3.8 2.6-6.5 6.9-7 11.7z"/>
					<path id="&lt;Path&gt;" class="s2" d="m121.9 184.5q2-0.3 3.8-1.2c-2.8-3.9-4.5-8.6-4.5-13.7 0-3.8 0.9-7.4 2.5-10.5q-0.9-0.3-1.9-0.4c-0.4 6-5.5 10.7-11.6 10.7q-1.6 0-3.1-0.5-0.3 1.3-0.3 2.7 0 0.6 0.1 1.2c7.1 0.3 13 5.1 15 11.7z"/>
					<path id="&lt;Path&gt;" class="s3" d="m106.9 172.8c0.5 6.6 6.1 11.9 13 11.9q1 0 2-0.2c-2-6.6-7.9-11.4-15-11.7z"/>
					<path id="&lt;Path&gt;" class="s3" d="m107.1 168.9q1.5 0.5 3.1 0.5c6.1 0 11.2-4.7 11.6-10.7q-0.9-0.2-1.9-0.2c-6.3 0-11.6 4.5-12.8 10.4z"/>
					<path id="&lt;Path&gt;" class="s3" d="m133 171.6c0-5.9-3.9-10.9-9.3-12.5-1.6 3.1-2.5 6.7-2.5 10.5 0 5.1 1.7 9.8 4.5 13.7 4.3-2.1 7.3-6.6 7.3-11.7z"/>
					<path id="&lt;Path&gt;" class="s3" d="m151.9 147c-2.2-0.7-4.6-1.1-7-1.1-6.3 0-12 2.5-16.3 6.5 2.3 0.9 4.8 1.3 7.4 1.3 6.2 0 11.8-2.6 15.9-6.7z"/>
					<path id="&lt;Path&gt;" class="s3" d="m165.8 180.7q-0.2 0-0.4 0c-8.7 0-16.2 5.1-19.8 12.5 8.7-0.2 16.3-5.2 20.2-12.5z"/>
					<path id="&lt;Path&gt;" class="s3" d="m177.9 184.6q-0.5 2.1-0.5 4.3c0 6.7 4.1 12.5 10 14.9q0.1-0.5 0.1-1.1c0-7.5-3.8-14.1-9.6-18.1z"/>
					<path id="&lt;Path&gt;" class="s3" d="m184.8 240.8c0 2.1 0.4 4.2 1 6.1q0.2 0 0.3 0c5.7 0 10.8 2.6 14.3 6.6 0.8-3.1 1.2-6.3 1.2-9.7 0-7.5-2.1-14.5-5.7-20.5-6.5 3.1-11.1 9.7-11.1 17.5z"/>
					<path id="&lt;Path&gt;" class="s4" d="m186.1 246.9q-0.1 0-0.3 0c2 5.9 6.7 10.5 12.7 12.4q1.2-2.8 1.9-5.8c-3.5-4-8.6-6.6-14.3-6.6z"/>
					<g id="&lt;Group&gt;">
						<path id="&lt;Path&gt;" class="s3" d="m200.4 253.5q-0.7 3-1.9 5.8c1.8 0.5 3.7 0.8 5.7 0.8-0.8-2.5-2.1-4.7-3.8-6.6z"/>
					</g>
					<path id="&lt;Path&gt;" class="s2" d="m242 216.1c-0.5-3-1.9-5.7-3.7-8-3.5 2.5-7.8 3.9-12.4 3.9-5.1 0-9.8-1.8-13.6-4.8-3 3.1-4.8 7.3-4.8 12q0 1.3 0.2 2.5c7.6 1.4 13.7 7.3 15.4 14.8q0.9 0.1 1.8 0.1c3.9 0 7.4-1.3 10.3-3.4q-0.1-0.8-0.1-1.6c0-6.1 2.7-11.7 6.9-15.5z"/>
					<path id="&lt;Path&gt;" class="s3" d="m207.7 221.7c1.1 7.8 7.5 14 15.4 14.8-1.7-7.5-7.8-13.4-15.4-14.8z"/>
					<path id="&lt;Path&gt;" class="s3" d="m242 216.1c-4.2 3.8-6.9 9.4-6.9 15.5q0 0.8 0.1 1.6c4.3-3.2 7.1-8.3 7.1-14q0-1.6-0.3-3.1z"/>
					<path id="&lt;Path&gt;" class="s3" d="m238.3 208.1c-3.2-3.8-8-6.3-13.4-6.3-4.9 0-9.4 2.1-12.6 5.4 3.8 3 8.5 4.8 13.6 4.8 4.6 0 8.9-1.4 12.4-3.9z"/>
					<path id="&lt;Path&gt;" class="s3" d="m302.5 288.6c3-4 4.8-8.9 4.8-14.3 0-2-0.3-4-0.7-5.9q-2.3-0.2-4.4-0.6c-1.8 2.9-2.9 6.4-2.9 10.1 0 4 1.2 7.6 3.2 10.7z"/>
					<path id="&lt;Path&gt;" class="s3" d="m299.5 291.8q-1.3-0.3-2.7-0.3c-4.8 0-9 2.5-11.3 6.3 5.4-0.4 10.3-2.6 14-6z"/>
					<path id="&lt;Path&gt;" class="s3" d="m181.7 284.4q-0.2-2.7-1.2-5.1-2.4 1.3-5 2.3c1.8 1.3 3.9 2.2 6.2 2.8z"/>
					<path id="&lt;Path&gt;" class="s3" d="m150 297.2c-4.4 0-8.2 2.9-9.6 6.8q2 0.5 4.2 0.5c4.7 0 8.9-1.8 12-4.9-1.8-1.4-4.1-2.4-6.6-2.4z"/>
					<path id="&lt;Path&gt;" class="s3" d="m139.8 306.8q0 0.4 0 0.7c0 4.4 2.7 8.1 6.5 9.6q0.3-1.1 0.3-2.2c0-4.1-2.9-7.4-6.8-8.1z"/>
					<path id="&lt;Path&gt;" class="s2" d="m183.3 298.8c2.9 0 5.3 2.3 5.3 5.3 0 2.9-2.4 5.3-5.3 5.3-2.9 0-5.3-2.4-5.3-5.3 0-3 2.4-5.3 5.3-5.3z"/>
					<path id="&lt;Path&gt;" class="s2" d="m188.6 312c1.9 0 3.5 1.5 3.5 3.4 0 1.9-1.6 3.5-3.5 3.5-1.9 0-3.4-1.6-3.4-3.5 0-1.9 1.5-3.4 3.4-3.4z"/>
					<path id="&lt;Path&gt;" class="s2" d="m180.9 318.3c2.1 0 3.9 1.7 3.9 3.9 0 2.1-1.8 3.8-3.9 3.8-2.2 0-3.9-1.7-3.9-3.8 0-2.2 1.7-3.9 3.9-3.9z"/>
					<path id="&lt;Path&gt;" class="s3" d="m155.3 162.4c0 7.3 5.1 13.4 11.9 15.1 0.9-2.5 1.4-5.1 1.4-7.9 0-7.4-3.4-13.9-8.6-18.3-2.9 2.8-4.7 6.8-4.7 11.1z"/>
					<path id="&lt;Path&gt;" class="s3" d="m214.1 159c-3.3 0-6.4 0.9-9.1 2.5 3.4 3.5 8.1 5.7 13.4 5.7q2.2 0 4.3-0.5-0.1-0.5-0.1-0.9 0-2.2 0.5-4.3c-2.7-1.6-5.7-2.5-9-2.5z"/>
					<path id="&lt;Path&gt;" class="s4" d="m231.8 174.5q-0.1-0.7-0.2-1.4-0.1-0.2-0.2-0.4-0.1-0.8-0.4-1.5 0-0.2-0.1-0.3-0.3-0.9-0.7-1.7-2.1-0.4-4.3-0.4-1.5 0-3 0.2c0.9 5.6 3.8 10.5 8.1 13.8 0.6-1.8 1-3.8 1-5.8q0-1-0.1-2-0.1-0.2-0.1-0.5z"/>
					<path id="&lt;Path&gt;" class="s3" d="m244.2 187.4q1.6 0 3.1-0.3c-1.4-8.9-8.3-16.1-17.1-17.9 1.1 2.4 1.8 5 1.8 7.8 0 2-0.4 4-1 5.8 3.6 2.9 8.2 4.6 13.2 4.6z"/>
					<path id="&lt;Path&gt;" class="s2" d="m185.7 143.4c-2.9 0.9-5.1 3.2-6 6.1 3.8 2.6 6.4 6.9 6.8 11.8q1 0.3 2 0.3c5.1 0 9.3-4.2 9.3-9.3q0-0.7-0.1-1.3c-5.1-0.5-9.5-3.4-12-7.6z"/>
					<path id="&lt;Path&gt;" class="s3" d="m185.7 143.4c2.5 4.2 6.9 7.1 12 7.6-0.6-4.5-4.5-8-9.2-8q-1.5 0-2.8 0.4z"/>
					<path id="&lt;Path&gt;" class="s3" d="m179.7 149.5q-0.5 1.3-0.5 2.8c0 4.4 3.1 8.1 7.3 9-0.4-4.9-3-9.2-6.8-11.8z"/>
					<path id="&lt;Path&gt;" class="s2" d="m303.9 134.8c4.8 0 8.6 3.9 8.6 8.7 0 4.8-3.8 8.6-8.6 8.6-4.8 0-8.6-3.8-8.6-8.6 0-4.8 3.8-8.7 8.6-8.7z"/>
					<path id="&lt;Path&gt;" class="s3" d="m276.9 150.5q1.3 0.3 2.7 0.3c4.6 0 8.7-2.2 11.3-5.6-1.4-0.8-3-1.2-4.7-1.2-4.3 0-7.9 2.7-9.3 6.5z"/>
					<path id="&lt;Path&gt;" class="s3" d="m288.6 163.7c4.3-1.1 7.6-4.9 7.6-9.6-4.1 1.5-7.1 5.2-7.6 9.6z"/>
					<path id="&lt;Path&gt;" class="s3" d="m292.5 173.7c2 1.8 4.7 2.9 7.7 2.9 3.4 0 6.4-1.5 8.6-3.8-2.2-0.7-4.5-1-6.9-1-3.4 0-6.5 0.7-9.4 1.9z"/>
					<path id="&lt;Path&gt;" class="s2" d="m265.4 170.3q2.7-0.5 5.6-0.5c4 0 7.8 0.8 11.2 2.3-0.3-7.6-6.5-13.7-14.2-13.7q-1.7 0-3.3 0.4c0.7 2.2 1.1 4.5 1.1 7q0 2.3-0.4 4.5z"/>
					<path id="&lt;Path&gt;" class="s3" d="m265.4 170.3c-1.1 4.9-3.8 9.2-7.6 12.2 2.6 2.7 6.2 4.3 10.2 4.3 7.9 0 14.2-6.3 14.2-14.2q0-0.2 0-0.5c-3.4-1.5-7.2-2.3-11.2-2.3q-2.9 0-5.6 0.5z"/>
					<path id="&lt;Path&gt;" class="s3" d="m120.2 193.2c-8.7 0-16.1 4.9-19.9 12 1.8 0.7 3.7 1 5.6 1 8 0 14.6-5.5 16.3-12.9q-1-0.1-2-0.1z"/>
					<path id="&lt;Path&gt;" class="s2" d="m76.4 188.1c4.1 0 7.5 3.3 7.5 7.5 0 4.1-3.4 7.5-7.5 7.5-4.2 0-7.5-3.4-7.5-7.5 0-4.2 3.3-7.5 7.5-7.5z"/>
					<path id="&lt;Path&gt;" class="s2" d="m80.6 236.2c2.7 0 5.2 1.1 6.9 2.9q0.9-1 1.4-2.1c-4.1-2.2-6.9-6.5-6.9-11.5q0-0.3 0-0.6-0.5-0.1-1.1-0.1c-4.8 0-8.7 3.9-8.7 8.7 0 2 0.7 3.8 1.8 5.3 1.7-1.6 4-2.6 6.6-2.6z"/>
					<path id="&lt;Path&gt;" class="s3" d="m80.6 236.2c-2.6 0-4.9 1-6.6 2.6 1.6 2.1 4.1 3.4 6.9 3.4 2.6 0 5-1.2 6.6-3.1-1.7-1.8-4.2-2.9-6.9-2.9z"/>
					<path id="&lt;Path&gt;" class="s3" d="m89.6 233.5c0-4.4-3.3-8.1-7.6-8.6q0 0.3 0 0.6c0 5 2.8 9.3 6.9 11.5 0.4-1.1 0.7-2.3 0.7-3.5z"/>
					<path id="&lt;Path&gt;" class="s2" d="m202.8 274.9c-2.8 5.1-7.8 8.8-13.7 9.7 1.2 3.4 4.4 5.8 8.2 5.8 4.8 0 8.7-3.9 8.7-8.7 0-2.7-1.3-5.2-3.2-6.8z"/>
					<path id="&lt;Path&gt;" class="s3" d="m202.8 274.9c-1.5-1.2-3.4-1.9-5.5-1.9-4.8 0-8.7 3.9-8.7 8.7q0 1.5 0.5 2.9c5.9-0.9 10.9-4.6 13.7-9.7z"/>
					<path id="&lt;Path&gt;" class="s3" d="m223.4 243.5q-0.7-0.1-1.5-0.1c-5.7 0-10.4 4.7-10.4 10.5 0 1.6 0.3 3 1 4.4 5.7-2.7 9.9-8.2 10.9-14.8z"/>
					<path id="&lt;Path&gt;" class="s3" d="m227.1 244.8c-0.6 1.5-1 3.2-1 4.9 0 4 1.8 7.5 4.7 9.8 1-1.6 1.6-3.5 1.6-5.6 0-3.9-2.1-7.3-5.3-9.1z"/>
					<g id="&lt;Group&gt;">
						<path id="&lt;Path&gt;" class="s3" d="m256.6 244c-2.2 0-4.3 0.5-6.2 1.3 0.6 1.4 0.9 2.9 0.9 4.4q-0.1 1.2-0.3 2.4 2.5 0.6 5.2 0.6c4.4 0 8.5-1.3 11.8-3.6-2.8-3.1-6.9-5.1-11.4-5.1z"/>
						<path id="&lt;Path&gt;" class="s3" d=""/>
					</g>
					<path id="&lt;Path&gt;" class="s4" d="m251.3 249.7c0-1.5-0.3-3-0.9-4.4q-1.5 0.7-2.9 1.7-0.1 0-0.1 0.1-0.6 0.4-1.2 0.9-0.1 0.1-0.1 0.2-0.7 0.5-1.2 1.2c1.8 1.2 3.9 2.1 6.1 2.7q0.2-1.2 0.3-2.4z"/>
					<path id="&lt;Path&gt;" class="s3" d="m238.7 237.1q-1.4 0-2.7 0.3c1.4 5 4.6 9.3 8.9 12 1.5-1.8 3.4-3.1 5.5-4.1-1.7-4.8-6.3-8.2-11.7-8.2z"/>
					<path id="&lt;Path&gt;" class="s2" d="m256.6 275.2c-6.7 0-12.4-4.3-14.6-10.2-3.2 1.8-5.4 5.2-5.4 9.1 0 5.8 4.6 10.4 10.3 10.4 5.4 0 9.9-4.1 10.4-9.4q-0.4 0.1-0.7 0.1z"/>
					<path id="&lt;Path&gt;" class="s3" d="m246.9 263.8c-1.7 0-3.4 0.4-4.9 1.2 2.2 5.9 7.9 10.2 14.6 10.2q0.3 0 0.7-0.1 0-0.5 0-1c0-5.7-4.6-10.3-10.4-10.3z"/>
					<path id="&lt;Path&gt;" class="s2" d="m172.6 299.4c-1.9 0.8-4 1.3-6.2 1.3-2.3 0-4.6-0.6-6.5-1.5q-1 1-1.6 2.2c1.2 1.7 2 3.8 2 6.1 0 1.2-0.3 2.4-0.7 3.5 1.6 1.8 3.9 2.9 6.5 2.9 4.8 0 8.7-3.9 8.7-8.7 0-2.3-0.8-4.3-2.2-5.8z"/>
					<path id="&lt;Path&gt;" class="s3" d="m158.3 301.4c-0.6 1.2-0.9 2.5-0.9 3.8 0 2.2 0.9 4.3 2.2 5.8 0.4-1.1 0.7-2.3 0.7-3.5 0-2.3-0.8-4.4-2-6.1z"/>
					<path id="&lt;Path&gt;" class="s3" d="m159.9 299.2c1.9 0.9 4.2 1.5 6.5 1.5 2.2 0 4.3-0.5 6.2-1.3-1.6-1.8-3.9-2.9-6.5-2.9-2.4 0-4.7 1-6.2 2.7z"/>
					<path id="&lt;Path&gt;" class="s2" d="m80.6 255.5c-3.6 0-6.7-1.9-8.3-4.7-4.1 0.4-7.3 3.9-7.3 8.1 0 4.5 3.6 8.1 8.2 8.1 4.5 0 8.1-3.6 8.1-8.1 0-1.2-0.3-2.4-0.7-3.4q0 0 0 0z"/>
					<path id="&lt;Path&gt;" class="s3" d="m72.3 250.8c1.6 2.8 4.7 4.7 8.3 4.7q0 0 0 0c-1.3-2.8-4.1-4.8-7.4-4.8q-0.5 0-0.9 0.1z"/>
					<path id="&lt;Path&gt;" class="s2" d="m82.1 221.9q0.2 0 0.4 0c1.2-4 4.1-7.1 8-8.6-0.1-4.5-3.9-8.2-8.4-8.2-3.9 0-7.2 2.7-8.1 6.3 2.2 1.3 3.8 3.7 3.8 6.5q0 1.3-0.5 2.5c1.4 1 3 1.5 4.8 1.5z"/>
					<path id="&lt;Path&gt;" class="s3" d="m82.5 221.9c4.4-0.2 8-3.9 8-8.4q0-0.1 0-0.2c-3.9 1.5-6.8 4.6-8 8.6z"/>
					<path id="&lt;Path&gt;" class="s3" d="m74 211.4q-0.3 1-0.3 2.1c0 2.9 1.4 5.4 3.6 6.9q0.5-1.2 0.5-2.5c0-2.8-1.6-5.2-3.8-6.5z"/>
					<path id="&lt;Path&gt;" class="s2" d="m95.6 282.3q0-1.9 0.3-3.6 0 0-0.1 0c-6.3 0-11.5 5.1-11.5 11.5 0 6.4 5.2 11.6 11.5 11.6 3.6 0 6.7-1.6 8.8-4.1-5.4-3-9-8.8-9-15.4z"/>
					<path id="&lt;Path&gt;" class="s3" d="m95.9 278.7q-0.3 1.7-0.3 3.6c0 6.6 3.6 12.4 9 15.4 1.7-2 2.8-4.6 2.8-7.5 0-6.3-5.1-11.5-11.5-11.5z"/>
					<path id="&lt;Path&gt;" class="s2" d="m123.7 296.4c-2.9 2.2-6.5 3.5-10.5 3.5-2.5 0-4.8-0.5-7-1.4-1.7 2.2-2.7 4.9-2.7 7.9 0 6.9 5.6 12.6 12.5 12.6 7 0 12.6-5.7 12.6-12.6 0-4.1-1.9-7.7-4.9-10z"/>
					<path id="&lt;Path&gt;" class="s3" d="m123.7 296.4c-2.1-1.6-4.7-2.6-7.7-2.6-3.9 0-7.5 1.8-9.8 4.7 2.2 0.9 4.5 1.4 7 1.4 4 0 7.6-1.3 10.5-3.5z"/>
					<path id="&lt;Path&gt;" class="s2" d="m101.9 173.2q0 0 0-0.1c0-4.7-3.8-8.5-8.5-8.5-2.2 0-4.3 0.8-5.8 2.2 0.9 1.2 1.4 2.6 1.4 4.2 0 2.5-1.3 4.7-3.2 6 1.1 2.1 3.1 3.7 5.5 4.4 2.2-4.1 6.1-7.1 10.6-8.2z"/>
					<path id="&lt;Path&gt;" class="s3" d="m91.3 181.4q1 0.2 2.1 0.2c4.7 0 8.5-3.7 8.5-8.4-4.5 1.1-8.4 4.1-10.6 8.2z"/>
					<path id="&lt;Path&gt;" class="s3" d="m84.9 173.1c0 1.4 0.3 2.7 0.9 3.9 1.9-1.3 3.2-3.5 3.2-6 0-1.6-0.5-3-1.4-4.2-1.7 1.6-2.7 3.8-2.7 6.3z"/>
					<path id="&lt;Path&gt;" class="s2" d="m212.8 285c2.6 0 4.8 2.2 4.8 4.9 0 2.7-2.2 4.9-4.8 4.9-2.7 0-4.9-2.2-4.9-4.9 0-2.7 2.2-4.9 4.9-4.9z"/>
					<path id="&lt;Path&gt;" class="s2" d="m228 293.3c2.5 0 4.6 2.1 4.6 4.6 0 2.5-2.1 4.6-4.6 4.6-2.6 0-4.6-2.1-4.6-4.6 0-2.5 2-4.6 4.6-4.6z"/>
					<path id="&lt;Path&gt;" class="s2" d="m249.9 318.9c2.5 0 4.6 2.1 4.6 4.6 0 2.6-2.1 4.6-4.6 4.6-2.6 0-4.6-2-4.6-4.6 0-2.5 2-4.6 4.6-4.6z"/>
					<path id="&lt;Path&gt;" class="s2" d="m265.7 314.7c-1.3 2.4-3.9 4.1-6.9 4.1q-0.3 0-0.7 0c-0.7 1.2-1.1 2.6-1.1 4.1 0 4.6 3.7 8.3 8.3 8.3 4.6 0 8.3-3.7 8.3-8.3 0-4.4-3.5-8-7.9-8.2z"/>
					<path id="&lt;Path&gt;" class="s3" d="m258.1 318.8q0.4 0 0.7 0c3 0 5.6-1.7 6.9-4.1q-0.2-0.1-0.4-0.1c-3 0-5.7 1.7-7.2 4.2z"/>
					<path id="&lt;Path&gt;" class="s2" d="m213.5 297.9c2 0 3.6 1.6 3.6 3.6 0 1.9-1.6 3.5-3.6 3.5-1.9 0-3.5-1.6-3.5-3.5 0-2 1.6-3.6 3.5-3.6z"/>
					<path id="&lt;Path&gt;" class="s3" d="m284 308c1.4 5.4 6.2 9.5 11.9 9.9-0.3-5.6-4.8-10-10.5-10q-0.7 0-1.4 0.1z"/>
					<path id="&lt;Path&gt;" class="s3" d="m305.8 295.1c-2.1 2.7-3.3 6.1-3.3 9.8 0 3.6 1.1 6.9 3.1 9.5 2.7-2.4 4.3-5.8 4.3-9.7 0-3.8-1.6-7.2-4.1-9.6z"/>
					<path id="&lt;Path&gt;" class="s3" d="m350.8 234.2q-0.6 3.9-1.9 7.4c2.1 2.4 5.1 3.9 8.5 3.9q1.4 0 2.6-0.3c-0.9-5.1-4.5-9.2-9.2-11z"/>
					<path id="&lt;Path&gt;" class="s4" d="m346.2 233.3q0 0.5 0 1c0 2.8 1 5.4 2.7 7.3q1.3-3.5 1.9-7.4c-1.4-0.5-3-0.8-4.6-0.9z"/>
					<path id="&lt;Path&gt;" class="s3" d="m350.8 234.2q0.2-1.4 0.3-2.8 0 0 0 0-0.8 0-1.6-0.1-0.2 0-0.3 0-0.8-0.1-1.5-0.3-0.2 0-0.4-0.1-0.3-0.1-0.5-0.1-0.4 1.2-0.6 2.5 2.4 0.1 4.6 0.9z"/>
					<path id="&lt;Path&gt;" class="s2" d="m357 257c-2.6 3.2-6.6 5.3-11 5.4-0.5 1.1-0.8 2.4-0.8 3.7 0 5.2 4.2 9.4 9.4 9.4 5.2 0 9.4-4.2 9.4-9.4 0-4.4-3-8-7-9.1z"/>
					<path id="&lt;Path&gt;" class="s3" d="m357 257q-1.1-0.3-2.4-0.3c-3.9 0-7.2 2.3-8.6 5.7 4.4-0.1 8.4-2.2 11-5.4z"/>
					<path id="&lt;Path&gt;" class="s2" d="m367.4 174.5c-2.4 0-4.6 0.5-6.6 1.3q-0.3 2-1 3.8c4.6 3.6 7.6 9.1 7.6 15.3 0 2.4-0.5 4.6-1.3 6.7q0.6 0.8 1.1 1.5 0 0.1 0 0.1 0.5 0.8 0.9 1.6 0 0 0 0 0.4 0.9 0.8 1.8 0 0 0 0 0.3 0.9 0.6 1.8 0 0 0 0c8.6-1 15.2-8.2 15.2-16.9 0-9.4-7.7-17-17.3-17z"/>
					<path id="&lt;Path&gt;" class="s3" d="m369.5 208.4c-0.7-2.5-1.8-4.8-3.4-6.8-0.9 2.3-2.1 4.4-3.8 6.2q2.4 0.7 5.1 0.7 1 0 2.1-0.1z"/>
					<path id="&lt;Path&gt;" class="s3" d="m353.8 158.4c-3.1-2.4-7-3.8-11.2-3.8-4.4 0-8.4 1.5-11.5 4 2.1 4.1 6.4 6.9 11.3 6.9 5 0 9.3-2.9 11.4-7.1z"/>
					<path id="&lt;Path&gt;" class="s2" d="m329.6 152.8c0-4.7 2.6-8.8 6.3-11-0.9-4.4-4.9-7.7-9.6-7.7-5.4 0-9.8 4.4-9.8 9.9 0 5.4 4.4 9.8 9.8 9.8q1.8 0 3.4-0.6 0-0.2-0.1-0.4z"/>
					<path id="&lt;Path&gt;" class="s3" d="m329.6 152.8q0.1 0.2 0.1 0.4c3.8-1.3 6.5-5 6.5-9.2q0-1.1-0.3-2.2c-3.7 2.2-6.3 6.3-6.3 11z"/>
					<path id="&lt;Path&gt;" class="s3" d="m357 177.9q1.5 0.7 2.8 1.7 0.7-1.8 1-3.8-2 0.8-3.8 2.1z"/>
					<path id="&lt;Path&gt;" class="s3" d="m358.9 181.6q-0.3 0.5-0.6 1-0.1 0.2-0.3 0.4-0.9 1.4-2 2.7-0.1 0-0.2 0.1-0.5 0.6-1.1 1.1-0.1 0-0.1 0.1-2.1 1.7-4.5 2.8-0.1 0.9-0.1 1.7c0 7.7 5.2 14.2 12.3 16.3 3.1-3.4 5.1-7.9 5.1-12.9 0-6.2-3-11.7-7.6-15.3q-0.3 0.8-0.7 1.5-0.1 0.3-0.2 0.5z"/>
					<path id="&lt;Path&gt;" class="s4" d="m351.6 194.6q-0.7 0-1.3 0.1 0.4 2.2 1.4 4.3 0.1 0.1 0.1 0.2 0.2 0.4 0.5 0.8 0.1 0.1 0.1 0.2 0.3 0.4 0.5 0.8 0.1 0.1 0.2 0.3 0.3 0.3 0.5 0.7 0.2 0.1 0.3 0.3 0.2 0.3 0.5 0.6 0.1 0.1 0.2 0.2 0.5 0.5 1.1 1 0.2 0.2 0.5 0.4 0.2 0.2 0.5 0.4 0.2 0.2 0.5 0.4 0.2 0.2 0.5 0.3 0.3 0.2 0.6 0.4 0.2 0.2 0.5 0.3 0.3 0.2 0.6 0.3 0.3 0.2 0.5 0.3 0.4 0.2 0.8 0.3 0.2 0.1 0.4 0.2 0.6 0.2 1.2 0.4c1.7-1.8 2.9-3.9 3.8-6.2-3.4-4.3-8.6-7-14.5-7z"/>
					<g id="&lt;Group&gt;">
						<path id="&lt;Path&gt;" class="s3" d=""/>
						<path id="&lt;Path&gt;" class="s3" d="m357 177.9c-2.8-1.6-6.1-2.5-9.6-2.5-7.7 0-14.4 4.4-17.7 10.7 3.3 3.3 7.9 5.3 12.9 5.3 2.7 0 5.2-0.5 7.5-1.6 0.5-4.9 3.1-9.2 6.9-11.9z"/>
					</g>
					<path id="&lt;Path&gt;" class="s4" d="m358.4 178.7q-0.6-0.4-1.4-0.8 0 0 0 0c-3.8 2.7-6.4 7-6.9 11.9 4.4-1.9 7.9-5.6 9.7-10.2q-0.7-0.5-1.4-0.9 0 0 0 0z"/>
					<path id="&lt;Path&gt;" class="s3" d="m330.1 293.8c-2.9-3.1-7-5-11.6-5-4.4 0-8.4 1.8-11.3 4.7 3.2 2.5 7.2 3.9 11.6 3.9 4.2 0 8.1-1.3 11.3-3.6z"/>
					<path id="&lt;Path&gt;" class="s4" d="m227.3 164.9c-1.2-1.3-2.6-2.5-4.2-3.4q-0.5 2.1-0.5 4.3 0 0.4 0.1 0.9 2.4-0.6 4.6-1.8z"/>
					<path id="&lt;Path&gt;" class="s3" d="m227.3 164.9c5.7-3.1 9.5-9.1 9.5-16.1q0-1.6-0.3-3.2c-6.8 2.6-11.9 8.6-13.4 15.9q2.4 1.4 4.2 3.4z"/>
					<path id="&lt;Path&gt;" class="s3" d="m206 198.8c1.2-1.4 2.1-3 2.6-4.8q-2.2-0.7-4.2-2c0.2 2.4 0.7 4.7 1.6 6.8z"/>
					<path id="&lt;Path&gt;" class="s3" d="m222.9 169c-6.9 1-12.8 5.2-16 11.2 1.6 2.5 2.6 5.5 2.6 8.7 0 1.8-0.3 3.5-0.9 5.1 1.8 0.6 3.6 0.9 5.5 0.9 7.8 0 14.5-5.1 16.9-12.1-4.3-3.3-7.2-8.2-8.1-13.8z"/>
					<path id="&lt;Path&gt;" class="s2" d="m224.7 174.9q0 0.1 0.1 0.1-0.1 0-0.1-0.1z"/>
					<path id="&lt;Path&gt;" class="s2" d="m225.7 176.8q0 0 0 0 0 0 0 0z"/>
					<path id="&lt;Path&gt;" class="s2" d="m226.7 178.3q0.1 0.1 0.1 0.2 0-0.1-0.1-0.2z"/>
					<path id="&lt;Path&gt;" class="s2" d="m228 179.9q0.1 0.1 0.2 0.3-0.1-0.2-0.2-0.3z"/>
					<path id="&lt;Path&gt;" class="s2" d="m206.9 180.2c3.2-6 9.1-10.2 16-11.2q-0.2-1.1-0.2-2.3-2.1 0.5-4.3 0.5c-5.3 0-10-2.2-13.4-5.7-4.2 2.5-7.4 6.7-8.4 11.6 4.3 0.9 8 3.5 10.3 7.1q0 0 0 0z"/>
					<path id="&lt;Path&gt;" class="s2" d="m229.4 181.4q0.1 0.1 0.2 0.2-0.1-0.1-0.2-0.2z"/>
					<path id="&lt;Path&gt;" class="s2" d="m209 185.1q0.1 0.3 0.2 0.6-0.1-0.3-0.2-0.6z"/>
					<path id="&lt;Path&gt;" class="s2" d="m209.3 186.3q0 0.4 0.1 0.8-0.1-0.4-0.1-0.8z"/>
					<path id="&lt;Path&gt;" class="s2" d="m223.9 173q0 0.1 0.1 0.2-0.1-0.1-0.1-0.2z"/>
					<path id="&lt;Path&gt;" class="s2" d="m208.7 184q0.1 0.2 0.1 0.4 0-0.2-0.1-0.4z"/>
					<path id="&lt;Path&gt;" class="s2" d="m209.4 187.6q0.1 0.6 0.1 1.3 0-0.7-0.1-1.3z"/>
					<path id="&lt;Path&gt;" class="s2" d="m223.3 171q0 0.1 0 0.2 0-0.1 0-0.2z"/>
					<path id="&lt;Path&gt;" class="s4" d="m209.4 187.1q-0.1-0.4-0.1-0.8-0.1-0.3-0.1-0.6-0.1-0.3-0.2-0.6-0.1-0.4-0.2-0.7 0-0.2-0.1-0.4-0.6-2.1-1.8-3.8 0 0 0 0c-1.6 3-2.6 6.5-2.6 10.2q0 0.8 0.1 1.6 2 1.3 4.2 2c0.6-1.6 0.9-3.3 0.9-5.1q0-0.7-0.1-1.3 0-0.3 0-0.5z"/>
					<path id="&lt;Path&gt;" class="s3" d="m209.4 187.6q0.1 0.6 0.1 1.3 0-0.9-0.1-1.8 0 0.2 0 0.5z"/>
					<path id="&lt;Path&gt;" class="s3" d="m206.9 180.2q1.2 1.7 1.8 3.8 0.1 0.2 0.1 0.4 0.1 0.3 0.2 0.7c-0.4-1.8-1.1-3.5-2.1-4.9z"/>
					<path id="&lt;Path&gt;" class="s3" d="m209.2 185.7q0 0.3 0.1 0.6 0 0.1 0 0.3 0-0.5-0.1-0.9z"/>
					<path id="&lt;Path&gt;" class="s3" d="m207.4 193.6q-0.3-0.1-0.6-0.3 0.3 0.2 0.6 0.3z"/>
					<path id="&lt;Path&gt;" class="s3" d="m206.3 193.1q-0.4-0.2-0.8-0.4 0.4 0.2 0.8 0.4z"/>
					<g id="&lt;Group&gt;">
						<path id="&lt;Path&gt;" class="s2" d="m195.9 119.6q-0.1-1.2-0.3-2.4c-2 0.9-4.2 1.4-6.6 1.4-8.9 0-16.2-7.2-16.2-16.2q0-1.7 0.3-3.2-2.8 0.1-5.4 0.9c2.1 2.6 3.3 5.9 3.3 9.6 0 8.1-6.1 14.7-14 15.5 0.7 2.1 1 4.2 1 6.5q0 2.2-0.4 4.2c4 4.5 9.8 7.3 16.3 7.3 3.8 0 7.3-0.9 10.4-2.6-0.6-1.7-0.9-3.5-0.9-5.4 0-7.6 5.3-14 12.5-15.6z"/>
					</g>
					<path id="&lt;Path&gt;" class="s4" d="m152.3 125q1.5 0.3 3.1 0.3 0.8 0 1.6-0.1c-0.9-3.1-2.6-5.9-4.7-8.2q-0.4 2-0.4 4.2 0 1.9 0.4 3.8z"/>
					<path id="&lt;Path&gt;" class="s3" d="m151.9 121.2q0-2.2 0.4-4.2c-3.2-3.6-7.5-6.1-12.5-6.9 0.2 7.3 5.5 13.4 12.5 14.9q-0.4-1.9-0.4-3.8z"/>
					<path id="&lt;Path&gt;" class="s3" d="m204.4 192q-0.1-0.8-0.1-1.6c0-3.7 1-7.2 2.6-10.2-2.3-3.6-6-6.2-10.3-7.1q-0.4 1.9-0.5 3.9c0 6.3 3.3 11.8 8.3 15z"/>
					<path id="&lt;Path&gt;" class="s3" d="m242.7 198.1q0 2.7 0.5 5.3c2.7-3.6 4.3-8.1 4.3-13q0-1.7-0.2-3.3-1.3 0.2-2.5 0.3c-1.4 3.3-2.1 6.9-2.1 10.7z"/>
					<path id="&lt;Path&gt;" class="s4" d="m246.5 183.8q-1 1.7-1.7 3.6 1.2-0.1 2.5-0.3-0.3-1.7-0.8-3.3z"/>
					<path id="&lt;Path&gt;" class="s2" d="m288.6 175.9c-2-1.5-4.1-2.8-6.4-3.8q0 0.3 0 0.5c0 7.9-6.3 14.2-14.2 14.2-4 0-7.6-1.6-10.2-4.3-2.9 2.4-6.6 4.1-10.5 4.6q0.2 1.6 0.2 3.3c0 4.9-1.6 9.4-4.3 13 0.6 3.4 1.9 6.5 3.6 9.4 2.8-1.5 6-2.3 9.4-2.3 5.9 0 11.2 2.4 15 6.3 1.6-5.7 4.4-10.9 8.1-15.3q0 0 0 0 0 0 0 0c-0.5-2-0.9-4.1-0.9-6.3 0-8 4.1-15 10.2-19.3z"/>
					<path id="&lt;Path&gt;" class="s3" d="m269.7 226.3c0.2-3.3 0.7-6.5 1.5-9.5-3.8-3.9-9.1-6.3-15-6.3-3.4 0-6.6 0.8-9.4 2.3 4.8 7.8 13.2 13.1 22.9 13.5z"/>
					<path id="&lt;Path&gt;" class="s4" d="m279.3 201.5c1.9 6.8 6.7 12.3 13 15.1 4.4-5 7-11.4 7-18.5 0-3.2-0.6-6.2-1.5-9-7.3 2.3-13.7 6.7-18.5 12.4z"/>
					<g id="&lt;Group&gt;">
						<path id="&lt;Path&gt;" class="s3" d="m339.5 199.2c-3.3-3.4-7.2-6.2-11.5-8.3q-0.5 2-0.5 4c0 5.5 2.4 10.5 6.2 14 0.9-3.8 2.9-7.2 5.8-9.7z"/>
					</g>
					<g id="&lt;Group&gt;">
						<path id="&lt;Path&gt;" class="s4" d="m271.2 216.8c-0.8 3-1.3 6.2-1.5 9.5q0.6 0 1.3 0.1 2.8 0 5.5-0.6c-1-3.4-2.8-6.5-5.3-9z"/>
					</g>
					<path id="&lt;Path&gt;" class="s2" d="m357.4 223.1c2.8 0 5.4 1.1 7.4 2.8 3.3-3.3 5.3-7.9 5.3-12.9 0-1.6-0.3-3.1-0.6-4.6q-1.1 0.1-2.1 0.1-2.7 0-5.1-0.7c-3.3 3.7-8 6.1-13.3 6.5 1.2 3.4 1.9 6.9 2.2 10.7 1.8-1.2 3.9-1.9 6.2-1.9z"/>
					<path id="&lt;Path&gt;" class="s3" d="m364.8 225.9c-2-1.7-4.6-2.8-7.4-2.8-2.3 0-4.4 0.7-6.2 1.9q0.1 1.4 0.1 2.8 0 1.8-0.2 3.6 0.3 0 0.5 0.1c5.2 0 9.9-2.2 13.2-5.6z"/>
					<g id="&lt;Group&gt;">
						<path id="&lt;Path&gt;" class="s3" d="m351.2 225q0.1 1.4 0.1 2.8 0-1.4-0.1-2.8z"/>
						<path id="&lt;Path&gt;" class="s3" d="m351.2 225c-0.3-3.8-1-7.3-2.2-10.7q-0.8 0-1.6 0.1c-5.3 0-10.1-2.1-13.7-5.5q-0.5 2-0.5 4.1c0 8.5 5.8 15.6 13.6 17.8 0.8-2.4 2.3-4.5 4.4-5.8z"/>
					</g>
					<path id="&lt;Path&gt;" class="s4" d="m339.5 199.2c-2.9 2.5-4.9 5.9-5.8 9.7q2 1.9 4.5 3.2 0 0 0.1 0.1 0.8 0.4 1.6 0.7 0.1 0 0.3 0.1 0.7 0.3 1.4 0.5 0.3 0.1 0.6 0.2 0.7 0.1 1.3 0.3 0.5 0.1 1 0.1 0.4 0.1 0.9 0.2 1 0.1 2 0.1 0.8-0.1 1.6-0.1c-2-5.8-5.3-10.9-9.5-15.1z"/>
					<path id="&lt;Path&gt;" class="s3" d="m349 214.3c5.3-0.4 10-2.8 13.3-6.5-6.1-1.8-10.8-6.9-12-13.1-4.1 0.3-7.9 1.9-10.8 4.4 4.2 4.3 7.5 9.4 9.5 15.2z"/>
					<g id="&lt;Group&gt;">
						<path id="&lt;Path&gt;" class="s4" d="m351.2 225c-2.1 1.3-3.6 3.4-4.4 5.8q2.1 0.6 4.3 0.6 0.2-1.8 0.2-3.6 0-1.4-0.1-2.8z"/>
					</g>
					<g id="&lt;Group&gt;">
						<path id="&lt;Path&gt;" class="s2" d="m333.2 213q0-2.1 0.5-4.1c-3.8-3.5-6.2-8.5-6.2-14q0-2 0.5-3.9-1.7-0.8-3.4-1.5 0.7 2.8 0.7 5.7c0 12.9-10.5 23.4-23.4 23.4-3.4 0-6.6-0.7-9.6-2-4 4.6-9.5 8-15.8 9.2q0 0 0 0c0.5 1.9 0.8 3.8 0.8 5.8 0 4.8-1.5 9.1-4.2 12.6 5.3 11.9 16 20.9 29.1 23.6 3.4-5.6 9.6-9.4 16.6-9.4 4.8 0 9.1 1.7 12.5 4.5q2.8-1.6 5.3-3.7c-3.3-2.7-5.4-6.8-5.4-11.3 0-8.1 6.5-14.6 14.5-14.6q0.3 0 0.5 0 0.2-1.3 0.6-2.5c-7.8-2.2-13.6-9.3-13.6-17.8z"/>
					</g>
					<path id="&lt;Path&gt;" class="s3" d="m273.1 244.2c2.7-3.5 4.2-7.8 4.2-12.6 0-2-0.3-3.9-0.8-5.8q0 0 0 0-0.7 0.1-1.3 0.2-0.1 0-0.1 0.1-0.6 0-1.3 0.1-0.2 0-0.4 0-0.5 0.1-1 0.1-0.7 0.1-1.4 0.1-0.7-0.1-1.3-0.1 0 0.8 0 1.5c0 5.9 1.2 11.4 3.4 16.4z"/>
					<path id="&lt;Path&gt;" class="s3" d="m283.7 250.7c-2.2 0-4.3 0.4-6.3 0.9 5.8 8.2 14.6 14.1 24.8 16.2q1.2-2 2.8-3.6c-3.8-8-11.9-13.5-21.3-13.5z"/>
					<path id="&lt;Path&gt;" class="s3" d="m302.2 267.8q4 0.8 8.3 0.8c7.6 0 14.7-2 20.8-5.7-3.4-2.8-7.7-4.5-12.5-4.5-7 0-13.2 3.8-16.6 9.4z"/>
					<path id="&lt;Path&gt;" class="s4" d="m305 264.2q0 0 0 0-0.8 0.8-1.5 1.7 0 0 0 0-0.7 0.9-1.3 1.9 2.1 0.4 4.4 0.6-0.6-2.2-1.6-4.2z"/>
					<path id="&lt;Path&gt;" class="s3" d="m348.3 240.9q0 0 0-0.1-0.3-0.3-0.5-0.7 0 0-0.1-0.1-0.2-0.4-0.3-0.7-0.1-0.1-0.2-0.2-0.1-0.4-0.2-0.7-0.1-0.2-0.2-0.3-0.1-0.3-0.2-0.7 0-0.2-0.1-0.4-0.1-0.3-0.1-0.6-0.1-0.2-0.1-0.5 0-0.2-0.1-0.5 0-0.4 0-0.8 0-0.1 0-0.3 0-0.1 0-0.2 0-0.4 0-0.8-0.2 0-0.5 0c-8 0-14.5 6.5-14.5 14.6 0 4.5 2.1 8.6 5.4 11.3 5.5-4.6 9.8-10.7 12.3-17.6q-0.3-0.3-0.6-0.7z"/>
					<g id="&lt;Group&gt;">
						<path id="&lt;Path&gt;" class="s2" d="m351.1 231.4q0 0 0 0 0 0 0 0z"/>
						<path id="&lt;Path&gt;" class="s2" d="m364.8 225.9c-2.1 2.1-4.7 3.7-7.5 4.7q-0.1 0-0.1 0-0.8 0.2-1.6 0.4-0.1 0-0.2 0.1-0.8 0.1-1.6 0.2-0.1 0-0.3 0.1-0.9 0.1-1.9 0.1 0 0 0 0 0 0 0 0-0.2-0.1-0.5-0.1-0.1 1.4-0.3 2.8c4.7 1.8 8.3 5.9 9.2 11 4.9-1.2 8.6-5.6 8.6-10.9 0-3.3-1.5-6.3-3.8-8.4z"/>
					</g>
					<path id="&lt;Path&gt;" class="s2" d="m299.3 277.9c0-3.7 1.1-7.2 2.9-10.1-10.2-2.1-19-8-24.8-16.2-2.2 0.6-4.3 1.6-6.2 2.8 0.6 1.6 1 3.4 1 5.2 0 7.4-5.2 13.5-12 15.1 0.2 12.9 10.6 23.2 23.5 23.2q0.9 0 1.8-0.1c2.3-3.8 6.5-6.3 11.3-6.3q1.4 0 2.7 0.3 1.7-1.5 3-3.2c-2-3.1-3.2-6.7-3.2-10.7z"/>
					<path id="&lt;Path&gt;" class="s3" d="m272.2 259.6c0-1.8-0.4-3.6-1-5.2-6.6 4.1-11.1 11.5-11.1 19.9q0.1 0.2 0.1 0.4c6.8-1.6 12-7.7 12-15.1z"/>
					<g id="&lt;Group&gt;">
						<path id="&lt;Path&gt;" class="s2" d="m195.9 223.3c-2.7-4.5-6.2-8.5-10.3-11.7-3.5 7.8-11.2 13.2-20.2 13.2-10.6 0-19.4-7.5-21.5-17.5q-1.3 0.6-2.5 1.3c0.7 2.2 1.1 4.6 1.1 7 0 6.2-2.5 11.7-6.5 15.8 5.2 4.6 8.5 11.4 8.5 18.9 0 9.2-4.9 17.3-12.2 21.8q0.9 0.9 1.9 1.8c2.9-2.2 6.5-3.5 10.4-3.5 4.2 0 8.1 1.5 11.1 4 2.7-2.7 6.5-4.4 10.7-4.4q0.6 0 1.2 0.1-0.5-2.1-0.5-4.2c0-10.4 8.4-18.8 18.7-19-0.6-1.9-1-4-1-6.1 0-7.8 4.6-14.4 11.1-17.5z"/>
					</g>
					<path id="&lt;Path&gt;" class="s3" d="m134.2 273.9c4.8 4.3 10.6 7.5 17.1 9.1q0.1-0.6 0.3-1.3 0-0.2 0.1-0.5 0.1-0.3 0.2-0.7 0.1-0.3 0.2-0.6 0.1-0.3 0.3-0.6 0.1-0.3 0.3-0.7 0.1-0.2 0.2-0.4 0.2-0.4 0.4-0.7 0.1-0.2 0.2-0.4 0.3-0.4 0.5-0.7 0.1-0.1 0.2-0.2 0.3-0.4 0.6-0.8 0.1-0.1 0.1-0.1 0.4-0.5 0.8-0.9c-3-2.5-6.9-4-11.1-4-3.9 0-7.5 1.3-10.4 3.5z"/>
					<path id="&lt;Path&gt;" class="s3" d="m144.5 250.3c0-7.5-3.3-14.3-8.5-18.9-3.8 3.8-9 6.3-14.8 6.6q-0.4 2.8-0.4 5.8c0 11 4.4 21 11.5 28.3 7.3-4.5 12.2-12.6 12.2-21.8z"/>
					<path id="&lt;Path&gt;" class="s4" d="m125.1 225.6c-1.9 3.8-3.3 8-3.9 12.4 5.8-0.3 11-2.8 14.8-6.6-3-2.8-6.8-4.8-10.9-5.8z"/>
					<path id="&lt;Path&gt;" class="s3" d="m161.4 284.2c4.9 0 9.7-0.9 14.1-2.6-4-2.6-6.9-6.7-7.9-11.5q-0.6-0.1-1.2-0.1c-4.2 0-8 1.7-10.7 4.4 2.9 2.5 4.9 5.9 5.7 9.8z"/>
					<path id="&lt;Path&gt;" class="s4" d="m161.4 284.2c-0.8-3.9-2.8-7.3-5.7-9.8-2.3 2.3-3.9 5.3-4.4 8.6 3.2 0.8 6.5 1.2 9.9 1.2q0.1 0 0.2 0z"/>
					<path id="&lt;Path&gt;" class="s3" d="m185.6 211.6c-6.8-5.1-15.3-8.2-24.4-8.2-6.2 0-12.1 1.4-17.3 3.9 2.1 10 10.9 17.5 21.5 17.5 9 0 16.7-5.4 20.2-13.2z"/>
					<path id="&lt;Path&gt;" class="s3" d="m185.8 246.9c-10.3 0.2-18.7 8.6-18.7 19q0 2.2 0.5 4.2c5.8 0.4 10.7 4.1 12.9 9.2 8.1-4.4 14.5-11.5 18-20-6-1.9-10.7-6.5-12.7-12.4z"/>
					<path id="&lt;Path&gt;" class="s4" d="m167.6 270.1c1.1 4.8 3.9 8.9 7.9 11.5q2.6-1 5-2.3c-2.2-5.1-7.1-8.8-12.9-9.2z"/>
					<g id="&lt;Group&gt;">
						<path id="&lt;Path&gt;" class="s2" d="m115.5 257.1c0 2.7-0.7 5.3-1.9 7.6 6.5 0.1 12.2 3.8 15.1 9.2q1.9-0.8 3.6-1.8c-7.1-7.3-11.5-17.3-11.5-28.3q0-3 0.4-5.8-0.5 0-1 0c-5.5 0-10.5-2-14.4-5.2-2.1 3-5.4 5.1-9.3 5.6q-0.7 1.3-1.2 2.8 1.8-0.5 3.8-0.5c9.1 0 16.4 7.3 16.4 16.4z"/>
					</g>
					<path id="&lt;Path&gt;" class="s3" d="m128.7 273.9c-2.9-5.4-8.6-9.1-15.1-9.2q-0.3 0.5-0.6 1-0.1 0.2-0.3 0.4-0.2 0.3-0.5 0.7-0.1 0.2-0.2 0.3-0.3 0.4-0.6 0.7-0.1 0.2-0.2 0.3-0.5 0.5-0.9 0.9 0 0 0 0-0.5 0.4-1 0.8-0.1 0.1-0.3 0.2-0.3 0.3-0.7 0.6-0.2 0.1-0.3 0.2-0.5 0.3-0.9 0.5-0.1 0.1-0.2 0.2-0.6 0.3-1.2 0.5 0 0 0 0c3.9 2.4 8.4 3.8 13.3 3.8 3.5 0 6.7-0.7 9.7-1.9z"/>
					<path id="&lt;Path&gt;" class="s3" d="m99.1 240.7q-2 0-3.8 0.5c-1.1 2.8-1.7 5.9-1.7 9.1 0 7.4 3.1 14 8.1 18.7q0.5-0.5 1.1-0.9 0.1-0.1 0.2-0.2 0.5-0.3 1-0.7 0.1 0 0.2-0.1 0.6-0.3 1.3-0.7 0.1 0 0.1-0.1 0.6-0.2 1.2-0.4 0.1-0.1 0.3-0.2 0.6-0.2 1.2-0.4 0.1 0 0.2 0 0.6-0.2 1.4-0.3 0.1-0.1 0.3-0.1 0.6-0.1 1.1-0.2 0.2 0 0.4 0 0.8-0.1 1.5-0.1 0.2 0 0.4 0.1c1.2-2.3 1.9-4.9 1.9-7.6 0-9.1-7.3-16.4-16.4-16.4z"/>
					<path id="&lt;Path&gt;" class="s4" d="m101.7 269q1.8 1.7 4 3c3.4-1.5 6.2-4.1 7.9-7.3q-0.2-0.1-0.4-0.1c-4.4 0-8.4 1.7-11.5 4.4z"/>
					<path id="&lt;Path&gt;" class="s3" d="m96.5 238.4c3.9-0.5 7.2-2.6 9.3-5.6q-0.6-0.5-1.2-1.1-0.1-0.1-0.2-0.2-0.6-0.6-1.1-1.2c-2.8 2.2-5.1 5-6.8 8.1z"/>
					<path id="&lt;Path&gt;" class="s3" d="m136 231.4c4-4.1 6.5-9.6 6.5-15.8 0-2.4-0.4-4.8-1.1-7-7 3.9-12.7 9.9-16.3 17 4.1 1 7.9 3 10.9 5.8z"/>
					<path id="&lt;Path&gt;" class="s3" d="m297.8 189.1c-1.8-5.3-5-9.8-9.2-13.2-6.1 4.3-10.2 11.3-10.2 19.3 0 2.2 0.4 4.3 0.9 6.4 4.8-5.8 11.2-10.1 18.5-12.5z"/>
					<path id="&lt;Path&gt;" class="s3" d="m225.9 168.8q2.2 0 4.3 0.4-1.1-2.4-2.9-4.3-2.2 1.2-4.6 1.8 0 1.2 0.2 2.3 1.5-0.2 3-0.2z"/>
				</g>
			</g>
		</g>
	</g>
</svg>